# Blender v3.1.2 OBJ File: 'xeTai.blend'
# www.blender.org
mtllib xeTai_DenSau.mtl
o Truck_body_Truck_body.L.008
v -0.001673 0.328736 -4.638477
v 0.759912 0.338735 -4.628477
v 0.759912 0.328735 -4.638477
v -0.001673 0.318736 -4.628477
v 0.759912 0.318735 -4.628477
v -0.001673 0.240580 -4.628477
v 0.759912 0.230580 -4.638477
v 0.759912 0.240580 -4.628477
v 0.759912 0.220580 -4.628477
v -0.001673 0.230580 -4.638477
v -0.001673 0.338736 -4.578577
v -0.001673 0.338736 -4.628477
v 0.759912 0.220580 -4.578577
v -0.001673 0.220580 -4.628477
v -0.001673 0.220580 -4.578577
v 0.759912 0.338735 -4.578577
v -0.759912 0.338735 -4.628477
v 0.001673 0.328736 -4.638477
v -0.759912 0.328735 -4.638477
v 0.001673 0.318736 -4.628477
v -0.759912 0.318735 -4.628477
v 0.001673 0.240580 -4.628477
v -0.759912 0.230580 -4.638477
v -0.759912 0.240580 -4.628477
v 0.001673 0.230580 -4.638477
v -0.759912 0.220580 -4.628477
v 0.001673 0.338736 -4.578577
v 0.001673 0.338736 -4.628477
v 0.001673 0.220580 -4.628477
v -0.759912 0.220580 -4.578577
v -0.759912 0.338735 -4.578577
v 0.001673 0.220580 -4.578577
v 0.499556 0.479611 -4.628477
v 0.429556 0.479611 -4.618476
v 0.499556 0.479611 -4.618476
v 0.519556 0.459062 -4.628476
v 0.519556 0.459062 -4.618476
v 0.429556 0.479611 -4.628477
v 0.409556 0.459611 -4.618476
v 0.519556 0.389062 -4.628476
v 0.519556 0.389062 -4.618476
v 0.499556 0.369063 -4.628476
v 0.499556 0.369063 -4.618476
v 0.409556 0.389062 -4.628476
v 0.409556 0.389062 -4.618476
v 0.429556 0.369063 -4.618476
v 0.429556 0.369063 -4.628476
v 0.629556 0.479611 -4.628477
v 0.559556 0.479611 -4.618476
v 0.629556 0.479611 -4.618476
v 0.649556 0.459062 -4.628476
v 0.649556 0.459062 -4.618476
v 0.539556 0.459062 -4.628476
v 0.539556 0.459062 -4.618476
v 0.539556 0.389062 -4.618476
v 0.539556 0.389062 -4.628476
v 0.559556 0.369063 -4.618476
v 0.649556 0.389062 -4.628476
v 0.649556 0.389062 -4.618476
v 0.629556 0.369063 -4.628476
v 0.629556 0.369063 -4.618476
v 0.559556 0.369063 -4.628476
v 0.759556 0.479611 -4.628477
v 0.689556 0.479611 -4.618476
v 0.759556 0.479611 -4.618476
v 0.779556 0.458846 -4.628476
v 0.779556 0.458846 -4.618476
v 0.669556 0.459062 -4.628476
v 0.669556 0.459062 -4.618476
v 0.669556 0.389062 -4.618476
v 0.779556 0.389062 -4.628476
v 0.779556 0.389062 -4.618476
v 0.759556 0.369063 -4.628476
v 0.759556 0.369063 -4.618476
v 0.689556 0.369063 -4.628476
v 0.689556 0.369063 -4.618476
v 0.669556 0.389062 -4.628476
v 0.409556 0.459611 -4.628477
v 0.689556 0.479611 -4.628477
v -0.429556 0.479611 -4.618476
v -0.499556 0.479611 -4.628477
v -0.499556 0.479611 -4.618476
v -0.519556 0.459062 -4.628476
v -0.519556 0.459062 -4.618476
v -0.409556 0.459611 -4.618476
v -0.429556 0.479611 -4.628477
v -0.519556 0.389062 -4.628476
v -0.519556 0.389062 -4.618476
v -0.499556 0.369063 -4.628476
v -0.499556 0.369063 -4.618476
v -0.409556 0.389062 -4.628476
v -0.409556 0.459611 -4.628477
v -0.429556 0.369063 -4.618476
v -0.409556 0.389062 -4.618476
v -0.429556 0.369063 -4.628476
v -0.559556 0.479611 -4.618476
v -0.629556 0.479611 -4.628477
v -0.629556 0.479611 -4.618476
v -0.649556 0.459062 -4.628476
v -0.649556 0.459062 -4.618476
v -0.539556 0.459062 -4.628476
v -0.559556 0.479611 -4.628477
v -0.539556 0.389062 -4.618476
v -0.539556 0.459062 -4.618476
v -0.559556 0.369063 -4.618476
v -0.539556 0.389062 -4.628476
v -0.649556 0.389062 -4.628476
v -0.649556 0.389062 -4.618476
v -0.629556 0.369063 -4.628476
v -0.629556 0.369063 -4.618476
v -0.559556 0.369063 -4.628476
v -0.689556 0.479611 -4.618476
v -0.759556 0.479611 -4.628477
v -0.759556 0.479611 -4.618476
v -0.779556 0.458846 -4.628476
v -0.779556 0.458846 -4.618476
v -0.669556 0.459062 -4.628476
v -0.689556 0.479611 -4.628477
v -0.669556 0.389062 -4.618476
v -0.669556 0.459062 -4.618476
v -0.779556 0.389062 -4.628476
v -0.779556 0.389062 -4.618476
v -0.759556 0.369063 -4.628476
v -0.759556 0.369063 -4.618476
v -0.689556 0.369063 -4.628476
v -0.689556 0.369063 -4.618476
v -0.669556 0.389062 -4.628476
v 0.559556 0.479611 -4.628477
v -0.001673 0.646116 -4.659035
v 0.819556 0.646116 -4.659035
v 0.819556 0.646116 -4.569035
v 0.819556 0.549611 -4.628477
v -0.001673 0.549612 -4.628477
v 0.819556 0.508846 -4.628477
v 0.819556 0.508846 -4.569035
v 0.819556 0.549611 -4.569035
v 0.001673 0.646116 -4.659035
v -0.819556 0.646116 -4.659035
v -0.819556 0.646116 -4.569035
v -0.819556 0.549611 -4.628477
v -0.819556 0.549611 -4.569035
v 0.001673 0.549612 -4.628477
v -0.819556 0.508846 -4.628477
v -0.819556 0.508846 -4.569035
v -0.001673 0.508846 -4.628477
v 0.001673 0.508846 -4.628477
v -0.000000 0.539466 -4.529035
v 0.300088 0.370240 -4.529035
v -0.000000 0.370240 -4.529035
v 0.300087 0.360240 -4.519035
v -0.000000 0.360240 -4.519035
v -0.300088 0.370240 -4.529035
v -0.300087 0.360240 -4.519035
v 0.300088 0.539466 -4.529035
v -0.300088 0.539466 -4.529035
v 0.559556 0.550137 -4.618476
v 0.499556 0.349063 -4.618476
v 0.559556 0.349063 -4.618476
v 0.799556 0.550136 -4.569035
v 0.799556 0.478846 -4.618476
v 0.799556 0.550137 -4.618476
v 0.799556 0.369063 -4.569035
v 0.799556 0.478846 -4.569035
v 0.779556 0.349063 -4.569035
v 0.799556 0.369063 -4.618476
v 0.779556 0.349063 -4.618476
v 0.689556 0.349063 -4.618476
v 0.689556 0.550137 -4.618476
v 0.629556 0.349063 -4.618476
v 0.629556 0.550137 -4.618476
v 0.499556 0.550137 -4.618476
v 0.409556 0.349063 -4.618476
v 0.389556 0.479612 -4.618476
v 0.389556 0.550137 -4.618476
v 0.389556 0.369063 -4.618476
v 0.389556 0.479612 -4.568316
v 0.389556 0.550136 -4.568316
v 0.409556 0.349063 -4.568315
v 0.499556 0.349063 -4.568315
v 0.559556 0.349063 -4.568315
v 0.629556 0.349063 -4.568315
v 0.689556 0.349063 -4.568315
v 0.559556 0.499669 -4.568315
v 0.499556 0.499669 -4.568315
v 0.629556 0.499669 -4.568315
v 0.689556 0.499669 -4.568315
v 0.779556 0.499669 -4.569035
v 0.409556 0.499669 -4.568315
v 0.799912 0.338735 -4.578577
v 0.799912 0.220580 -4.628477
v 0.799912 0.338735 -4.628477
v 0.799912 0.230580 -4.638477
v 0.799912 0.328735 -4.638477
v 0.799912 0.318735 -4.628477
v 0.799912 0.240580 -4.628477
v 0.799912 0.220580 -4.578577
v -0.559556 0.550137 -4.618476
v -0.499556 0.349063 -4.618476
v -0.559556 0.349063 -4.618476
v -0.799556 0.550136 -4.569035
v -0.799556 0.478846 -4.618476
v -0.799556 0.478846 -4.569035
v -0.799556 0.369063 -4.569035
v -0.799556 0.369063 -4.618476
v -0.779556 0.349063 -4.569035
v -0.779556 0.349063 -4.618476
v -0.689556 0.349063 -4.618476
v -0.689556 0.550137 -4.618476
v -0.629556 0.349063 -4.618476
v -0.629556 0.550137 -4.618476
v -0.499556 0.550137 -4.618476
v -0.409556 0.349063 -4.618476
v -0.389556 0.369063 -4.618476
v -0.389556 0.479612 -4.618476
v -0.389556 0.479612 -4.568316
v -0.389556 0.550136 -4.568316
v -0.409556 0.349063 -4.568315
v -0.499556 0.349063 -4.568315
v -0.559556 0.349063 -4.568315
v -0.629556 0.349063 -4.568315
v -0.689556 0.349063 -4.568315
v -0.559556 0.499669 -4.568315
v -0.499556 0.499669 -4.568315
v -0.629556 0.499669 -4.568315
v -0.689556 0.499669 -4.568315
v -0.779556 0.499669 -4.569035
v -0.409556 0.499669 -4.568315
v -0.799912 0.338735 -4.578577
v -0.799912 0.220580 -4.628477
v -0.799912 0.338735 -4.628477
v -0.799912 0.230580 -4.638477
v -0.799912 0.328735 -4.638477
v -0.799912 0.318735 -4.628477
v -0.799912 0.240580 -4.628477
v 0.389556 0.369063 -4.568315
v -0.799556 0.550137 -4.618476
v -0.389556 0.550137 -4.618476
v -0.389556 0.369063 -4.568315
v -0.799912 0.220580 -4.578577
vt 0.000000 0.000000
vt 0.000000 0.000000
vt 0.000000 0.000000
vt 0.000000 0.000000
vt 0.000000 0.000000
vt 0.000000 0.000000
vt 0.000000 0.000000
vt 0.000000 0.000000
vt 0.000000 0.000000
vt 0.000000 0.000000
vt 0.000000 0.000000
vt 0.000000 0.000000
vt 0.000000 0.000000
vt 0.000000 0.000000
vt 0.000000 0.000000
vt 0.000000 0.000000
vt 0.000000 0.000000
vt 0.000000 0.000000
vt 0.000000 0.000000
vt 0.000000 0.000000
vt 0.000000 0.000000
vt 0.000000 0.000000
vt 0.000000 0.000000
vt 0.000000 0.000000
vt 0.000000 0.000000
vt 0.000000 0.000000
vt 0.000000 0.000000
vt 0.000000 0.000000
vt 0.000000 0.000000
vt 0.000000 0.000000
vt 0.000000 0.000000
vt 0.000000 0.000000
vt 0.000000 0.000000
vt 0.000000 0.000000
vt 0.000000 0.000000
vt 0.000000 0.000000
vt 0.000000 0.000000
vt 0.000000 0.000000
vt 0.000000 0.000000
vt 0.000000 0.000000
vt 0.000000 0.000000
vt 0.000000 0.000000
vt 0.000000 0.000000
vt 0.000000 0.000000
vt 0.000000 0.000000
vt 0.000000 0.000000
vt 0.000000 0.000000
vt 0.000000 0.000000
vt 0.000000 0.000000
vt 0.000000 0.000000
vt 0.000000 0.000000
vt 0.000000 0.000000
vt 0.000000 0.000000
vt 0.000000 0.000000
vt 0.000000 0.000000
vt 0.000000 0.000000
vt 0.000000 0.000000
vt 0.000000 0.000000
vt 0.000000 0.000000
vt 0.000000 0.000000
vt 0.000000 0.000000
vt 0.000000 0.000000
vt 0.000000 0.000000
vt 0.000000 0.000000
vt 0.000000 0.000000
vt 0.000000 0.000000
vt 0.000000 0.000000
vt 0.000000 0.000000
vt 0.000000 0.000000
vt 0.000000 0.000000
vt 0.000000 0.000000
vt 0.000000 0.000000
vt 0.000000 0.000000
vt 0.000000 0.000000
vt 0.000000 0.000000
vt 0.000000 0.000000
vt 0.000000 0.000000
vt 0.000000 0.000000
vt 0.000000 0.000000
vt 0.000000 0.000000
vt 0.000000 0.000000
vt 0.000000 0.000000
vt 0.000000 0.000000
vt 0.000000 0.000000
vt 0.000000 0.000000
vt 0.000000 0.000000
vt 0.000000 0.000000
vt 0.000000 0.000000
vt 0.000000 0.000000
vt 0.000000 0.000000
vt 0.000000 0.000000
vt 0.000000 0.000000
vt 0.000000 0.000000
vt 0.000000 0.000000
vt 0.000000 0.000000
vt 0.000000 0.000000
vt 0.000000 0.000000
vt 0.000000 0.000000
vt 0.000000 0.000000
vt 0.000000 0.000000
vt 0.000000 0.000000
vt 0.000000 0.000000
vt 0.000000 0.000000
vt 0.000000 0.000000
vt 0.000000 0.000000
vt 0.000000 0.000000
vt 0.000000 0.000000
vt 0.000000 0.000000
vt 0.000000 0.000000
vt 0.000000 0.000000
vt 0.000000 0.000000
vt 0.000000 0.000000
vt 0.000000 0.000000
vt 0.000000 0.000000
vt 0.000000 0.000000
vt 0.000000 0.000000
vt 0.000000 0.000000
vt 0.000000 0.000000
vt 0.000000 0.000000
vt 0.000000 0.000000
vt 0.000000 0.000000
vt 0.000000 0.000000
vt 0.000000 0.000000
vt 0.000000 0.000000
vt 0.000000 0.000000
vt 0.000000 0.000000
vt 0.000000 0.000000
vt 0.000000 0.000000
vt 0.000000 0.000000
vt 0.000000 0.000000
vt 0.000000 0.000000
vt 0.000000 0.000000
vt 0.000000 0.000000
vt 0.000000 0.000000
vt 0.000000 0.000000
vt 0.000000 0.000000
vt 0.000000 0.000000
vt 0.000000 0.000000
vt 0.000000 0.000000
vt 0.000000 0.000000
vt 0.000000 0.000000
vt 0.000000 0.000000
vt 0.000000 0.000000
vt 0.000000 0.000000
vt 0.000000 0.000000
vt 0.000000 0.000000
vt 0.000000 0.000000
vt 0.000000 0.000000
vt 0.000000 0.000000
vt 0.000000 0.000000
vt 0.000000 0.000000
vt 0.000000 0.000000
vt 0.000000 0.000000
vt 0.000000 0.000000
vt 0.000000 0.000000
vt 0.000000 0.000000
vt 0.000000 0.000000
vt 0.000000 0.000000
vt 0.000000 0.000000
vt 0.000000 0.000000
vt 0.000000 0.000000
vt 0.000000 0.000000
vt 0.000000 0.000000
vt 0.000000 0.000000
vt 0.000000 0.000000
vt 0.000000 0.000000
vt 0.000000 0.000000
vt 0.000000 0.000000
vt 0.000000 0.000000
vt 0.000000 0.000000
vt 0.000000 0.000000
vt 0.000000 0.000000
vt 0.000000 0.000000
vt 0.000000 0.000000
vt 0.000000 0.000000
vt 0.000000 0.000000
vt 0.000000 0.000000
vt 0.000000 0.000000
vt 0.000000 0.000000
vt 0.000000 0.000000
vt 0.000000 0.000000
vt 0.000000 0.000000
vt 0.000000 0.000000
vt 0.000000 0.000000
vt 0.000000 0.000000
vt 0.000000 0.000000
vt 0.000000 0.000000
vt 0.000000 0.000000
vt 0.000000 0.000000
vt 0.000000 0.000000
vt 0.000000 0.000000
vt 0.000000 0.000000
vt 0.000000 0.000000
vt 0.000000 0.000000
vt 0.000000 0.000000
vt 0.000000 0.000000
vt 0.000000 0.000000
vt 0.000000 0.000000
vt 0.000000 0.000000
vt 0.000000 0.000000
vt 0.000000 0.000000
vt 0.000000 0.000000
vt 0.000000 0.000000
vt 0.000000 0.000000
vt 0.000000 0.000000
vt 0.000000 0.000000
vt 0.000000 0.000000
vt 0.000000 0.000000
vt 0.000000 0.000000
vt 0.000000 0.000000
vt 0.000000 0.000000
vt 0.000000 0.000000
vt 0.000000 0.000000
vt 0.000000 0.000000
vt 0.000000 0.000000
vt 0.000000 0.000000
vt 0.000000 0.000000
vt 0.000000 0.000000
vt 0.000000 0.000000
vt 0.000000 0.000000
vt 0.000000 0.000000
vt 0.000000 0.000000
vt 0.000000 0.000000
vt 0.000000 0.000000
vt 0.000000 0.000000
vt 0.000000 0.000000
vt 0.000000 0.000000
vt 0.000000 0.000000
vt 0.000000 0.000000
vt 0.000000 0.000000
vt 0.000000 0.000000
vt 0.000000 0.000000
vt 0.000000 0.000000
vt 0.000000 0.000000
vt 0.000000 0.000000
vt 0.000000 0.000000
vt 0.000000 0.000000
vt 0.000000 0.000000
vt 0.000000 0.000000
vn 0.0000 0.7071 -0.7071
vn -0.0000 -0.7071 -0.7071
vn 0.0000 0.0000 -1.0000
vn 0.0000 1.0000 0.0000
vn 0.0000 -1.0000 -0.0000
vn -0.0000 0.0000 1.0000
vn 0.7166 0.6975 0.0000
vn -0.7071 0.7071 0.0000
vn 1.0000 0.0000 0.0000
vn 0.7071 -0.7071 0.0000
vn -1.0000 0.0000 0.0000
vn -0.7071 -0.7071 0.0000
vn -0.7166 0.6975 0.0000
vn 0.7203 0.6937 0.0000
vn 0.7071 0.7071 0.0000
vn -0.7203 0.6937 0.0000
vn 0.7202 0.6937 0.0000
vn -0.7202 0.6937 0.0000
vn 0.0000 -0.3019 -0.9533
vn 0.0080 0.0000 1.0000
vn -0.0080 0.0000 1.0000
usemtl door_knob
s off
f 1/1/1 2/2/1 3/3/1
f 3/3/2 4/4/2 1/1/2
f 5/5/3 6/6/3 4/4/3
f 7/7/1 6/6/1 8/8/1
f 9/9/2 10/10/2 7/7/2
f 11/11/4 2/2/4 12/12/4
f 13/13/5 14/14/5 9/9/5
f 15/15/6 16/16/6 11/11/6
f 17/17/1 18/18/1 19/19/1
f 19/19/2 20/20/2 21/21/2
f 22/22/3 21/21/3 20/20/3
f 22/22/1 23/23/1 24/24/1
f 25/25/2 26/26/2 23/23/2
f 17/17/4 27/27/4 28/28/4
f 29/29/5 30/30/5 26/26/5
f 31/31/6 32/32/6 27/27/6
f 1/1/1 12/12/1 2/2/1
f 3/3/2 5/5/2 4/4/2
f 5/5/3 8/8/3 6/6/3
f 7/7/1 10/10/1 6/6/1
f 9/9/2 14/14/2 10/10/2
f 11/11/4 16/16/4 2/2/4
f 13/13/5 15/15/5 14/14/5
f 15/15/6 13/13/6 16/16/6
f 17/17/1 28/28/1 18/18/1
f 19/19/2 18/18/2 20/20/2
f 22/22/3 24/24/3 21/21/3
f 22/22/1 25/25/1 23/23/1
f 25/25/2 29/29/2 26/26/2
f 17/17/4 31/31/4 27/27/4
f 29/29/5 32/32/5 30/30/5
f 31/31/6 30/30/6 32/32/6
usemtl signal_light
f 33/33/4 34/34/4 35/35/4
f 36/36/7 35/35/7 37/37/7
f 38/38/8 39/39/8 34/34/8
f 40/40/9 37/37/9 41/41/9
f 42/42/10 41/41/10 43/43/10
f 39/39/11 44/44/11 45/45/11
f 44/44/12 46/46/12 45/45/12
f 47/47/5 43/43/5 46/46/5
f 48/48/4 49/49/4 50/50/4
f 51/51/7 50/50/7 52/52/7
f 49/49/13 53/53/13 54/54/13
f 53/53/11 55/55/11 54/54/11
f 56/56/12 57/57/12 55/55/12
f 58/58/9 52/52/9 59/59/9
f 60/60/10 59/59/10 61/61/10
f 62/62/5 61/61/5 57/57/5
f 63/63/4 64/64/4 65/65/4
f 66/66/14 65/65/14 67/67/14
f 64/64/13 68/68/13 69/69/13
f 68/68/11 70/70/11 69/69/11
f 71/71/9 67/67/9 72/72/9
f 73/73/10 72/72/10 74/74/10
f 75/75/5 74/74/5 76/76/5
f 77/77/12 76/76/12 70/70/12
f 36/36/3 38/38/3 33/33/3
f 36/36/3 44/44/3 78/78/3
f 47/47/3 40/40/3 42/42/3
f 53/53/3 48/48/3 51/51/3
f 51/51/3 56/56/3 53/53/3
f 56/56/3 60/60/3 62/62/3
f 77/77/3 66/66/3 71/71/3
f 66/66/3 79/79/3 63/63/3
f 77/77/3 73/73/3 75/75/3
f 80/80/4 81/81/4 82/82/4
f 82/82/13 83/83/13 84/84/13
f 85/85/15 86/86/15 80/80/15
f 84/84/11 87/87/11 88/88/11
f 88/88/12 89/89/12 90/90/12
f 85/85/9 91/91/9 92/92/9
f 93/93/10 91/91/10 94/94/10
f 90/90/5 95/95/5 93/93/5
f 96/96/4 97/97/4 98/98/4
f 98/98/13 99/99/13 100/100/13
f 96/96/7 101/101/7 102/102/7
f 103/103/9 101/101/9 104/104/9
f 105/105/10 106/106/10 103/103/10
f 100/100/11 107/107/11 108/108/11
f 108/108/12 109/109/12 110/110/12
f 110/110/5 111/111/5 105/105/5
f 112/112/4 113/113/4 114/114/4
f 114/114/16 115/115/16 116/116/16
f 112/112/7 117/117/7 118/118/7
f 119/119/9 117/117/9 120/120/9
f 116/116/11 121/121/11 122/122/11
f 122/122/12 123/123/12 124/124/12
f 124/124/5 125/125/5 126/126/5
f 126/126/10 127/127/10 119/119/10
f 83/83/3 86/86/3 92/92/3
f 91/91/3 83/83/3 92/92/3
f 95/95/3 87/87/3 91/91/3
f 97/97/3 101/101/3 99/99/3
f 106/106/3 99/99/3 101/101/3
f 109/109/3 106/106/3 111/111/3
f 115/115/3 127/127/3 121/121/3
f 118/118/3 115/115/3 113/113/3
f 123/123/3 127/127/3 125/125/3
f 33/33/4 38/38/4 34/34/4
f 36/36/7 33/33/7 35/35/7
f 38/38/8 78/78/8 39/39/8
f 40/40/9 36/36/9 37/37/9
f 42/42/10 40/40/10 41/41/10
f 39/39/11 78/78/11 44/44/11
f 44/44/12 47/47/12 46/46/12
f 47/47/5 42/42/5 43/43/5
f 48/48/4 128/128/4 49/49/4
f 51/51/7 48/48/7 50/50/7
f 49/49/13 128/128/13 53/53/13
f 53/53/11 56/56/11 55/55/11
f 56/56/12 62/62/12 57/57/12
f 58/58/9 51/51/9 52/52/9
f 60/60/10 58/58/10 59/59/10
f 62/62/5 60/60/5 61/61/5
f 63/63/4 79/79/4 64/64/4
f 66/66/17 63/63/17 65/65/17
f 64/64/13 79/79/13 68/68/13
f 68/68/11 77/77/11 70/70/11
f 71/71/9 66/66/9 67/67/9
f 73/73/10 71/71/10 72/72/10
f 75/75/5 73/73/5 74/74/5
f 77/77/12 75/75/12 76/76/12
f 36/36/3 78/78/3 38/38/3
f 36/36/3 40/40/3 44/44/3
f 47/47/3 44/44/3 40/40/3
f 53/53/3 128/128/3 48/48/3
f 51/51/3 58/58/3 56/56/3
f 56/56/3 58/58/3 60/60/3
f 77/77/3 68/68/3 66/66/3
f 66/66/3 68/68/3 79/79/3
f 77/77/3 71/71/3 73/73/3
f 80/80/4 86/86/4 81/81/4
f 82/82/13 81/81/13 83/83/13
f 85/85/15 92/92/15 86/86/15
f 84/84/11 83/83/11 87/87/11
f 88/88/12 87/87/12 89/89/12
f 85/85/9 94/94/9 91/91/9
f 93/93/10 95/95/10 91/91/10
f 90/90/5 89/89/5 95/95/5
f 96/96/4 102/102/4 97/97/4
f 98/98/13 97/97/13 99/99/13
f 96/96/7 104/104/7 101/101/7
f 103/103/9 106/106/9 101/101/9
f 105/105/10 111/111/10 106/106/10
f 100/100/11 99/99/11 107/107/11
f 108/108/12 107/107/12 109/109/12
f 110/110/5 109/109/5 111/111/5
f 112/112/4 118/118/4 113/113/4
f 114/114/18 113/113/18 115/115/18
f 112/112/7 120/120/7 117/117/7
f 119/119/9 127/127/9 117/117/9
f 116/116/11 115/115/11 121/121/11
f 122/122/12 121/121/12 123/123/12
f 124/124/5 123/123/5 125/125/5
f 126/126/10 125/125/10 127/127/10
f 83/83/3 81/81/3 86/86/3
f 91/91/3 87/87/3 83/83/3
f 95/95/3 89/89/3 87/87/3
f 97/97/3 102/102/3 101/101/3
f 106/106/3 107/107/3 99/99/3
f 109/109/3 107/107/3 106/106/3
f 115/115/3 117/117/3 127/127/3
f 118/118/3 117/117/3 115/115/3
f 123/123/3 121/121/3 127/127/3
usemtl diffuse_black
f 131/129/9 132/130/9 130/131/9
f 130/131/19 133/132/19 129/133/19
f 134/134/3 133/132/3 132/130/3
f 135/135/9 132/130/9 136/136/9
f 139/137/11 140/138/11 141/139/11
f 138/140/19 142/141/19 140/138/19
f 142/141/3 143/142/3 140/138/3
f 140/138/11 144/143/11 141/139/11
f 131/129/9 136/136/9 132/130/9
f 130/131/19 132/130/19 133/132/19
f 134/134/3 145/144/3 133/132/3
f 135/135/9 134/134/9 132/130/9
f 139/137/11 138/140/11 140/138/11
f 138/140/19 137/145/19 142/141/19
f 142/141/3 146/146/3 143/142/3
f 140/138/11 143/142/11 144/143/11
f 147/147/3 148/148/3 149/149/3
f 149/149/2 150/150/2 151/151/2
f 152/152/3 147/147/3 149/149/3
f 149/149/2 153/153/2 152/152/2
f 147/147/3 154/154/3 148/148/3
f 149/149/2 148/148/2 150/150/2
f 152/152/3 155/155/3 147/147/3
f 149/149/2 151/151/2 153/153/2
f 35/35/3 156/156/3 49/49/3
f 35/35/3 54/54/3 37/37/3
f 37/37/3 55/55/3 41/41/3
f 41/41/3 57/57/3 43/43/3
f 157/157/3 57/57/3 158/158/3
f 159/159/9 160/160/9 161/161/9
f 162/162/9 160/160/9 163/163/9
f 164/164/10 165/165/10 162/162/10
f 165/165/3 67/67/3 160/160/3
f 160/160/3 65/65/3 161/161/3
f 166/166/3 72/72/3 165/165/3
f 167/167/3 74/74/3 166/166/3
f 65/65/3 168/168/3 161/161/3
f 50/50/3 168/168/3 64/64/3
f 169/169/3 76/76/3 167/167/3
f 59/59/3 76/76/3 61/61/3
f 52/52/3 70/70/3 59/59/3
f 50/50/3 69/69/3 52/52/3
f 49/49/3 170/170/3 50/50/3
f 61/61/3 158/158/3 57/57/3
f 34/34/3 171/171/3 35/35/3
f 157/157/3 46/46/3 43/43/3
f 172/172/3 45/45/3 46/46/3
f 34/34/3 173/173/3 174/174/3
f 39/39/3 175/175/3 173/173/3
f 175/175/11 176/176/11 173/173/11
f 173/173/11 177/177/11 174/174/11
f 178/178/12 175/175/12 172/172/12
f 179/179/5 172/172/5 157/157/5
f 180/180/5 157/157/5 158/158/5
f 181/181/5 158/158/5 169/169/5
f 182/182/5 169/169/5 167/167/5
f 164/164/5 167/167/5 166/166/5
f 183/183/6 179/179/6 180/180/6
f 184/184/6 178/178/6 179/179/6
f 185/185/6 180/180/6 181/181/6
f 186/186/6 181/181/6 182/182/6
f 187/187/20 182/182/20 164/164/20
f 176/176/6 178/178/6 188/188/6
f 163/163/6 164/164/6 162/162/6
f 13/13/6 189/189/6 16/16/6
f 189/189/4 2/2/4 16/16/4
f 190/190/5 13/13/5 9/9/5
f 191/191/1 3/3/1 2/2/1
f 192/192/2 9/9/2 7/7/2
f 193/193/2 5/5/2 3/3/2
f 194/194/3 8/8/3 5/5/3
f 195/195/1 7/7/1 8/8/1
f 189/189/9 195/195/9 194/194/9
f 194/194/9 191/191/9 189/189/9
f 190/190/9 195/195/9 196/196/9
f 197/197/3 82/82/3 96/96/3
f 104/104/3 82/82/3 84/84/3
f 103/103/3 84/84/3 88/88/3
f 105/105/3 88/88/3 90/90/3
f 105/105/3 198/198/3 199/199/3
f 200/200/11 201/201/11 202/202/11
f 201/201/11 203/203/11 202/202/11
f 204/204/12 205/205/12 203/203/12
f 204/204/3 116/116/3 122/122/3
f 201/201/3 114/114/3 116/116/3
f 206/206/3 122/122/3 124/124/3
f 124/124/3 207/207/3 206/206/3
f 114/114/3 208/208/3 112/112/3
f 208/208/3 98/98/3 112/112/3
f 126/126/3 209/209/3 207/207/3
f 126/126/3 108/108/3 110/110/3
f 119/119/3 100/100/3 108/108/3
f 120/120/3 98/98/3 100/100/3
f 210/210/3 96/96/3 98/98/3
f 199/199/3 110/110/3 105/105/3
f 211/211/3 80/80/3 82/82/3
f 198/198/3 93/93/3 212/212/3
f 212/212/3 94/94/3 213/213/3
f 80/80/3 214/214/3 85/85/3
f 85/85/3 213/213/3 94/94/3
f 215/215/9 213/213/9 214/214/9
f 214/214/9 216/216/9 215/215/9
f 213/213/10 217/217/10 212/212/10
f 212/212/5 218/218/5 198/198/5
f 198/198/5 219/219/5 199/199/5
f 199/199/5 220/220/5 209/209/5
f 209/209/5 221/221/5 207/207/5
f 205/205/5 207/207/5 221/221/5
f 218/218/6 222/222/6 219/219/6
f 217/217/6 223/223/6 218/218/6
f 219/219/6 224/224/6 220/220/6
f 220/220/6 225/225/6 221/221/6
f 221/221/21 226/226/21 205/205/21
f 217/217/6 215/215/6 227/227/6
f 202/202/6 205/205/6 226/226/6
f 228/228/6 30/30/6 31/31/6
f 17/17/4 228/228/4 31/31/4
f 30/30/5 229/229/5 26/26/5
f 19/19/1 230/230/1 17/17/1
f 26/26/2 231/231/2 23/23/2
f 21/21/2 232/232/2 19/19/2
f 24/24/3 233/233/3 21/21/3
f 23/23/1 234/234/1 24/24/1
f 234/234/11 228/228/11 233/233/11
f 230/230/11 233/233/11 228/228/11
f 229/229/11 234/234/11 231/231/11
f 35/35/3 171/171/3 156/156/3
f 35/35/3 49/49/3 54/54/3
f 37/37/3 54/54/3 55/55/3
f 41/41/3 55/55/3 57/57/3
f 157/157/3 43/43/3 57/57/3
f 159/159/9 163/163/9 160/160/9
f 162/162/9 165/165/9 160/160/9
f 164/164/10 166/166/10 165/165/10
f 165/165/3 72/72/3 67/67/3
f 160/160/3 67/67/3 65/65/3
f 166/166/3 74/74/3 72/72/3
f 167/167/3 76/76/3 74/74/3
f 65/65/3 64/64/3 168/168/3
f 50/50/3 170/170/3 168/168/3
f 169/169/3 61/61/3 76/76/3
f 59/59/3 70/70/3 76/76/3
f 52/52/3 69/69/3 70/70/3
f 50/50/3 64/64/3 69/69/3
f 49/49/3 156/156/3 170/170/3
f 61/61/3 169/169/3 158/158/3
f 34/34/3 174/174/3 171/171/3
f 157/157/3 172/172/3 46/46/3
f 172/172/3 175/175/3 45/45/3
f 34/34/3 39/39/3 173/173/3
f 39/39/3 45/45/3 175/175/3
f 175/175/11 235/235/11 176/176/11
f 173/173/11 176/176/11 177/177/11
f 178/178/12 235/235/12 175/175/12
f 179/179/5 178/178/5 172/172/5
f 180/180/5 179/179/5 157/157/5
f 181/181/5 180/180/5 158/158/5
f 182/182/5 181/181/5 169/169/5
f 164/164/5 182/182/5 167/167/5
f 183/183/6 184/184/6 179/179/6
f 184/184/6 188/188/6 178/178/6
f 185/185/6 183/183/6 180/180/6
f 186/186/6 185/185/6 181/181/6
f 187/187/20 186/186/20 182/182/20
f 176/176/6 235/235/6 178/178/6
f 163/163/6 187/187/6 164/164/6
f 13/13/6 196/196/6 189/189/6
f 189/189/4 191/191/4 2/2/4
f 190/190/5 196/196/5 13/13/5
f 191/191/1 193/193/1 3/3/1
f 192/192/2 190/190/2 9/9/2
f 193/193/2 194/194/2 5/5/2
f 194/194/3 195/195/3 8/8/3
f 195/195/1 192/192/1 7/7/1
f 189/189/9 196/196/9 195/195/9
f 194/194/9 193/193/9 191/191/9
f 190/190/9 192/192/9 195/195/9
f 197/197/3 211/211/3 82/82/3
f 104/104/3 96/96/3 82/82/3
f 103/103/3 104/104/3 84/84/3
f 105/105/3 103/103/3 88/88/3
f 105/105/3 90/90/3 198/198/3
f 200/200/11 236/236/11 201/201/11
f 201/201/11 204/204/11 203/203/11
f 204/204/12 206/206/12 205/205/12
f 204/204/3 201/201/3 116/116/3
f 201/201/3 236/236/3 114/114/3
f 206/206/3 204/204/3 122/122/3
f 124/124/3 126/126/3 207/207/3
f 114/114/3 236/236/3 208/208/3
f 208/208/3 210/210/3 98/98/3
f 126/126/3 110/110/3 209/209/3
f 126/126/3 119/119/3 108/108/3
f 119/119/3 120/120/3 100/100/3
f 120/120/3 112/112/3 98/98/3
f 210/210/3 197/197/3 96/96/3
f 199/199/3 209/209/3 110/110/3
f 211/211/3 237/237/3 80/80/3
f 198/198/3 90/90/3 93/93/3
f 212/212/3 93/93/3 94/94/3
f 80/80/3 237/237/3 214/214/3
f 85/85/3 214/214/3 213/213/3
f 215/215/9 238/238/9 213/213/9
f 214/214/9 237/237/9 216/216/9
f 213/213/10 238/238/10 217/217/10
f 212/212/5 217/217/5 218/218/5
f 198/198/5 218/218/5 219/219/5
f 199/199/5 219/219/5 220/220/5
f 209/209/5 220/220/5 221/221/5
f 205/205/5 206/206/5 207/207/5
f 218/218/6 223/223/6 222/222/6
f 217/217/6 227/227/6 223/223/6
f 219/219/6 222/222/6 224/224/6
f 220/220/6 224/224/6 225/225/6
f 221/221/21 225/225/21 226/226/21
f 217/217/6 238/238/6 215/215/6
f 202/202/6 203/203/6 205/205/6
f 228/228/6 239/239/6 30/30/6
f 17/17/4 230/230/4 228/228/4
f 30/30/5 239/239/5 229/229/5
f 19/19/1 232/232/1 230/230/1
f 26/26/2 229/229/2 231/231/2
f 21/21/2 233/233/2 232/232/2
f 24/24/3 234/234/3 233/233/3
f 23/23/1 231/231/1 234/234/1
f 234/234/11 239/239/11 228/228/11
f 230/230/11 232/232/11 233/233/11
f 229/229/11 239/239/11 234/234/11
