# Blender v3.1.2 OBJ File: 'untitled.blend'
# www.blender.org
mtllib canh2.mtl
o Cylinder.002_Cylinder.005
v 0.069701 -0.321158 0.288225
v -0.054063 -0.390405 0.250032
v -0.144665 -0.441097 0.145686
v -0.177827 -0.459652 0.003146
v -0.144665 -0.441097 -0.139393
v -0.054063 -0.390405 -0.243738
v 0.069701 -0.321158 -0.281932
v 0.193465 -0.251911 -0.243738
v 0.284067 -0.201219 -0.139393
v 0.317229 -0.182664 0.003146
v 0.284067 -0.201219 0.145686
v 0.193465 -0.251911 0.250032
v -1.355278 1.945748 0.299139
v -1.397106 1.922344 0.286230
v -1.427727 1.905211 0.250964
v -1.438935 1.898941 0.202790
v -1.427727 1.905212 0.154616
v -1.397106 1.922344 0.119350
v -1.355278 1.945748 0.106442
v -1.313449 1.969151 0.119350
v -1.282828 1.986284 0.154616
v -1.271620 1.992555 0.202790
v -1.282828 1.986284 0.250964
v -1.313449 1.969151 0.286230
v -1.984823 2.819370 0.258966
v -2.012152 2.804079 0.250532
v -2.032158 2.792885 0.227491
v -2.039481 2.788788 0.196016
v -2.032158 2.792885 0.164542
v -2.012152 2.804079 0.141501
v -1.984823 2.819370 0.133067
v -1.957494 2.834660 0.141501
v -1.937488 2.845854 0.164542
v -1.930165 2.849951 0.196016
v -1.937488 2.845854 0.227491
v -1.957494 2.834660 0.250532
v -0.561290 1.107086 -0.020280
v -0.516060 1.132392 0.031811
v -0.730088 1.012642 0.031811
v -0.684859 1.037948 -0.020280
v -0.561290 1.107086 0.226216
v -0.623074 1.072517 0.245283
v -0.684859 1.037948 0.226216
v -0.730088 1.012642 0.174126
v -0.499505 1.141655 0.102968
v -0.623074 1.072517 -0.039346
v -0.746643 1.003379 0.102968
v -0.516060 1.132392 0.174126
vt 0.416667 1.000000
vt 0.333333 1.000000
vt 0.333333 1.000000
vt 0.916667 1.000000
vt 1.000000 1.000000
vt 0.916667 1.000000
vt 0.666667 1.000000
vt 0.583333 1.000000
vt 0.583333 1.000000
vt 0.000000 1.000000
vt 0.083333 1.000000
vt 0.000000 1.000000
vt 0.833333 1.000000
vt 0.833333 1.000000
vt 0.250000 1.000000
vt 0.250000 1.000000
vt 0.500000 1.000000
vt 0.500000 1.000000
vt 0.750000 1.000000
vt 0.750000 1.000000
vt 0.166667 1.000000
vt 0.166667 1.000000
vt 0.416667 1.000000
vt 0.666667 1.000000
vt 0.083333 1.000000
vt 0.916667 1.000000
vt 1.000000 1.000000
vt 0.042154 0.370000
vt 0.250000 0.010000
vt 0.457846 0.370000
vt 0.333333 1.000000
vt 0.583333 1.000000
vt 0.083333 1.000000
vt 0.000000 1.000000
vt 0.833333 1.000000
vt 0.250000 1.000000
vt 0.500000 1.000000
vt 0.750000 1.000000
vt 0.166667 1.000000
vt 0.416667 1.000000
vt 0.666667 1.000000
vt 1.000000 1.000000
vt 0.916667 1.000000
vt 0.083333 1.000000
vt 0.750000 1.000000
vt 0.666667 1.000000
vt 0.416667 1.000000
vt 0.166667 1.000000
vt 0.833333 1.000000
vt 0.500000 1.000000
vt 0.250000 1.000000
vt 0.000000 1.000000
vt 0.583333 1.000000
vt 0.333333 1.000000
vt 1.000000 1.000000
vt 0.370000 0.457846
vt 0.250000 0.490000
vt 0.130000 0.457846
vt 0.010000 0.250000
vt 0.042154 0.130000
vt 0.130000 0.042154
vt 0.370000 0.042154
vt 0.457846 0.130000
vt 0.490000 0.250000
vn 0.4893 0.5381 -0.6863
vn -0.2301 -0.1214 0.9656
vn -0.6026 -0.3740 -0.7050
vn 0.2255 0.1295 0.9656
vn -0.5349 -0.4780 0.6967
vn 0.7022 0.6666 -0.2501
vn -0.2635 -0.0602 -0.9628
vn -0.7513 -0.6091 0.2541
vn 0.7311 0.6338 0.2526
vn 0.1393 0.2756 -0.9511
vn -0.7784 -0.5733 -0.2557
vn 0.5608 0.4405 0.7010
vn -0.1793 -0.2096 0.9612
vn -0.4883 0.8727 -0.0000
vn 0.5632 0.4370 -0.7013
vn -0.5905 -0.3942 -0.7042
vn 0.1942 0.1843 0.9635
vn -0.5951 -0.3866 0.7045
vn 0.7678 0.5877 -0.2551
vn -0.2241 -0.1321 -0.9656
vn -0.8020 -0.5393 0.2568
vn 0.7659 0.5903 0.2550
vn 0.2003 0.1737 -0.9642
vn -0.8002 -0.5420 -0.2567
vn 0.5583 0.4443 0.7006
vn -0.2460 -0.0925 0.9648
vn 0.6144 0.3536 0.7053
vn -0.9070 -0.3353 -0.2547
vn 0.1581 0.2451 -0.9565
vn 0.8310 0.4931 0.2575
vn -0.8950 -0.3654 0.2558
vn -0.3027 0.0154 -0.9530
vn 0.8137 0.5212 -0.2572
vn -0.6547 -0.2774 0.7032
vn 0.2201 0.1392 0.9655
vn -0.6911 -0.1964 -0.6955
vn 0.5674 0.4306 -0.7019
vn -0.6026 -0.3740 -0.7049
usemtl Material
s off
f 37/1/1 21/2/1 38/3/1
f 14/4/2 25/5/2 26/6/2
f 39/7/3 18/8/3 40/9/3
f 42/10/4 24/11/4 13/12/4
f 44/13/5 14/4/5 15/14/5
f 45/15/6 21/2/6 22/16/6
f 40/9/7 19/17/7 46/18/7
f 44/13/8 16/19/8 47/20/8
f 48/21/9 22/16/9 23/22/9
f 46/18/10 20/23/10 37/1/10
f 47/20/11 17/24/11 39/7/11
f 41/25/12 23/22/12 24/11/12
f 43/26/13 13/27/13 14/4/13
f 35/28/14 31/29/14 27/30/14
f 20/23/15 33/31/15 21/2/15
f 17/24/16 30/32/16 18/8/16
f 13/12/17 36/33/17 25/34/17
f 15/14/18 26/6/18 27/35/18
f 21/2/19 34/36/19 22/16/19
f 18/8/20 31/37/20 19/17/20
f 16/19/21 27/35/21 28/38/21
f 23/22/22 34/36/22 35/39/22
f 19/17/23 32/40/23 20/23/23
f 16/19/24 29/41/24 17/24/24
f 24/11/25 35/39/25 36/33/25
f 1/42/26 43/26/26 2/43/26
f 12/44/27 48/21/27 41/25/27
f 4/45/28 39/7/28 5/46/28
f 8/47/29 46/18/29 37/1/29
f 11/48/30 45/15/30 48/21/30
f 3/49/31 47/20/31 4/45/31
f 7/50/32 40/9/32 46/18/32
f 10/51/33 38/3/33 45/15/33
f 2/43/34 44/13/34 3/49/34
f 12/44/35 42/10/35 1/52/35
f 5/46/36 40/9/36 6/53/36
f 9/54/37 37/1/37 38/3/37
f 37/1/1 20/23/1 21/2/1
f 14/4/2 13/27/2 25/5/2
f 39/7/38 17/24/38 18/8/38
f 42/10/4 41/25/4 24/11/4
f 44/13/5 43/26/5 14/4/5
f 45/15/6 38/3/6 21/2/6
f 40/9/7 18/8/7 19/17/7
f 44/13/8 15/14/8 16/19/8
f 48/21/9 45/15/9 22/16/9
f 46/18/10 19/17/10 20/23/10
f 47/20/11 16/19/11 17/24/11
f 41/25/12 48/21/12 23/22/12
f 43/26/13 42/55/13 13/27/13
f 27/30/14 26/56/14 35/28/14
f 26/56/14 25/57/14 35/28/14
f 25/57/14 36/58/14 35/28/14
f 35/28/14 34/59/14 31/29/14
f 34/59/14 33/60/14 31/29/14
f 33/60/14 32/61/14 31/29/14
f 31/29/14 30/62/14 29/63/14
f 29/63/14 28/64/14 31/29/14
f 28/64/14 27/30/14 31/29/14
f 20/23/15 32/40/15 33/31/15
f 17/24/16 29/41/16 30/32/16
f 13/12/17 24/11/17 36/33/17
f 15/14/18 14/4/18 26/6/18
f 21/2/19 33/31/19 34/36/19
f 18/8/20 30/32/20 31/37/20
f 16/19/21 15/14/21 27/35/21
f 23/22/22 22/16/22 34/36/22
f 19/17/23 31/37/23 32/40/23
f 16/19/24 28/38/24 29/41/24
f 24/11/25 23/22/25 35/39/25
f 1/42/26 42/55/26 43/26/26
f 12/44/27 11/48/27 48/21/27
f 4/45/28 47/20/28 39/7/28
f 8/47/29 7/50/29 46/18/29
f 11/48/30 10/51/30 45/15/30
f 3/49/31 44/13/31 47/20/31
f 7/50/32 6/53/32 40/9/32
f 10/51/33 9/54/33 38/3/33
f 2/43/34 43/26/34 44/13/34
f 12/44/35 41/25/35 42/10/35
f 5/46/36 39/7/36 40/9/36
f 9/54/37 8/47/37 37/1/37
