# Blender v3.1.2 OBJ File: 'xeTai.blend'
# www.blender.org
mtllib xeTai_TrucGuong1.mtl
o Truck_backmirror.L
v -0.048475 0.603402 0.300386
v -0.025724 0.603402 0.279900
v -0.024122 0.603402 0.249327
v -0.079048 0.603402 0.298782
v -0.044607 0.603402 0.226575
v -0.075180 0.603402 0.224973
v -0.097931 0.603402 0.245460
v -0.099533 0.603402 0.276032
v -0.079048 0.072183 0.298782
v -0.099533 0.072183 0.276031
v -0.048475 0.072183 0.300384
v -0.097931 0.072183 0.245458
v -0.075180 0.072183 0.224973
v -0.025724 0.072183 0.279899
v -0.044607 0.072183 0.226575
v -0.024122 0.072183 0.249326
v -0.025724 0.632914 0.279900
v -0.024122 0.632914 0.249327
v -0.048475 0.632914 0.300386
v -0.079048 0.632914 0.298782
v -0.075180 0.632915 0.224973
v -0.097931 0.632915 0.245460
v -0.099533 0.632914 0.276032
v -0.079048 0.002671 0.298782
v -0.099533 0.002671 0.276031
v -0.048475 0.002671 0.300384
v -0.097931 0.002671 0.245458
v -0.025724 0.002671 0.279899
v -0.075180 0.002671 0.224973
v -0.024122 0.002671 0.249326
v -0.044607 0.002671 0.226575
v -0.044607 0.632915 0.226575
v 0.034340 0.623402 0.154820
v -0.064607 0.623402 0.126575
v -0.105542 0.603402 0.124973
v -0.064607 0.652915 0.126575
v -0.105542 0.632915 0.124973
v 0.034340 0.652915 0.154820
v -0.068940 0.673192 0.033818
v 0.081428 0.672078 0.042230
v -0.068940 0.673192 0.003819
v -0.109123 0.632358 0.032166
v -0.109123 0.632358 0.002167
v 0.081428 0.672078 0.072229
v 0.081428 0.642078 0.062230
v -0.068940 0.643192 0.023819
v -0.068941 0.643192 0.053819
v -0.109123 0.592358 0.022168
v -0.109123 0.592359 0.052167
v 0.081428 0.642078 0.092230
vt 1.000000 0.000000
vt 0.000000 1.000000
vt 0.000000 0.000000
vt 1.000000 0.000000
vt 0.000000 1.000000
vt 0.000000 0.000000
vt 1.000000 0.000000
vt 0.000000 1.000000
vt 0.000000 0.000000
vt 1.000000 0.000000
vt 0.000000 1.000000
vt 0.000000 0.000000
vt 1.000000 0.000000
vt 0.000000 1.000000
vt 0.000000 0.000000
vt 0.000000 0.000000
vt 1.000000 1.000000
vt 0.000000 1.000000
vt 1.000000 0.000000
vt 0.000000 1.000000
vt 0.000000 0.000000
vt 1.000000 0.000000
vt 0.000000 1.000000
vt 0.000000 0.000000
vt 1.000000 0.000000
vt 0.000000 1.000000
vt 0.000000 0.000000
vt 1.000000 0.000000
vt 0.000000 1.000000
vt 0.000000 0.000000
vt 1.000000 0.000000
vt 0.000000 1.000000
vt 0.000000 0.000000
vt 1.000000 0.000000
vt 0.000000 1.000000
vt 0.000000 0.000000
vt 1.000000 0.000000
vt 0.000000 1.000000
vt 0.000000 0.000000
vt 1.000000 0.000000
vt 0.000000 1.000000
vt 0.000000 0.000000
vt 1.000000 1.000000
vt 0.000000 1.000000
vt 1.000000 0.000000
vt 0.000000 1.000000
vt 0.000000 0.000000
vt 1.000000 0.000000
vt 0.000000 1.000000
vt 0.000000 0.000000
vt 1.000000 0.000000
vt 0.000000 1.000000
vt 0.000000 0.000000
vt 0.000000 1.000000
vt 0.000000 0.000000
vt 1.000000 1.000000
vt 0.000000 1.000000
vt 0.000000 0.000000
vt 1.000000 1.000000
vt 0.000000 1.000000
vt 1.000000 1.000000
vt 0.000000 1.000000
vt 1.000000 0.000000
vt 0.000000 1.000000
vt 0.000000 0.000000
vt 1.000000 0.000000
vt 0.000000 1.000000
vt 0.000000 0.000000
vt 1.000000 0.000000
vt 0.000000 1.000000
vt 0.000000 0.000000
vt 1.000000 1.000000
vt 0.000000 0.000000
vt 1.000000 1.000000
vt 0.000000 1.000000
vt 1.000000 0.000000
vt 0.000000 0.000000
vt 1.000000 1.000000
vt 0.000000 1.000000
vt 0.000000 0.000000
vt 1.000000 1.000000
vt 0.000000 1.000000
vt 0.000000 0.000000
vt 0.000000 1.000000
vt 0.000000 0.000000
vt 0.000000 0.000000
vt 1.000000 1.000000
vt 0.000000 1.000000
vt 0.000000 0.000000
vt 1.000000 1.000000
vt 1.000000 0.000000
vt 0.000000 1.000000
vt 0.000000 0.000000
vt 1.000000 0.000000
vt 0.000000 0.000000
vt 1.000000 1.000000
vt 1.000000 1.000000
vt 1.000000 1.000000
vt 1.000000 1.000000
vt 1.000000 1.000000
vt 1.000000 1.000000
vt 1.000000 1.000000
vt 1.000000 1.000000
vt 1.000000 1.000000
vt 1.000000 1.000000
vt 1.000000 1.000000
vt 1.000000 1.000000
vt 1.000000 1.000000
vt 1.000000 0.000000
vt 1.000000 1.000000
vt 1.000000 1.000000
vt 1.000000 1.000000
vt 1.000000 0.000000
vt 1.000000 0.000000
vt 1.000000 1.000000
vt 1.000000 1.000000
vt 1.000000 0.000000
vt 1.000000 0.000000
vt 1.000000 1.000000
vt 1.000000 0.000000
vt 1.000000 0.000000
vt 1.000000 0.000000
vn 0.9986 0.0000 0.0523
vn 0.6691 -0.0000 0.7431
vn -0.0524 -0.0000 0.9986
vn -0.6692 0.0000 -0.7431
vn -0.7431 0.0000 0.6691
vn -0.9986 0.0000 -0.0523
vn -0.0523 -0.0000 0.9986
vn -0.6691 0.0000 -0.7431
vn 0.0523 0.0000 -0.9986
vn 0.7431 0.0000 -0.6691
vn 0.0000 1.0000 0.0000
vn 0.1369 -0.9829 -0.1233
vn 0.0104 -0.9801 -0.1981
vn -0.9569 0.0000 0.2905
vn -0.4393 0.8884 0.1334
vn -0.0591 0.9765 0.2071
vn 0.8504 0.0000 0.5261
vn 0.0074 1.0000 0.0000
vn -0.7128 0.7014 0.0000
vn 1.0000 0.0000 -0.0000
vn 0.2040 -0.5430 -0.8145
vn -0.0074 -1.0000 0.0000
vn 0.5161 -0.3831 -0.7661
vn -1.0000 0.0000 0.0000
vn 0.7845 -0.6201 0.0000
vn 0.0558 -0.9675 -0.2467
vn 0.7991 0.0000 0.6012
vn -0.0478 0.9753 0.2154
vn -0.4357 0.8749 0.2116
vn -0.9988 0.0000 0.0491
vn 0.7824 -0.6203 0.0556
vn 0.0591 -0.9765 -0.2071
vn 0.4393 -0.8884 -0.1334
vn -0.0104 0.9801 0.1981
vn -0.1369 0.9829 0.1233
vn 0.5132 -0.4761 -0.7141
vn 0.0759 -0.9610 -0.2659
vn 0.7768 0.3493 0.5239
vn -0.0558 0.9791 0.1954
vn -0.7130 0.7007 0.0233
vn -0.9991 0.0192 0.0384
vn 0.4320 -0.8634 -0.2606
usemtl gloss_black
s off
f 17/1/1 3/2/1 18/3/1
f 19/4/2 2/5/2 17/6/2
f 20/7/3 1/8/3 19/9/3
f 21/10/4 7/11/4 22/12/4
f 23/13/5 4/14/5 20/15/5
f 23/16/6 7/17/6 8/18/6
f 24/19/5 10/20/5 25/21/5
f 26/22/7 9/23/7 24/24/7
f 25/25/6 12/26/6 27/27/6
f 28/28/2 11/29/2 26/30/2
f 27/31/8 13/32/8 29/33/8
f 30/34/1 14/35/1 28/36/1
f 29/37/9 15/38/9 31/39/9
f 31/40/10 16/41/10 30/42/10
f 18/3/11 23/43/11 20/44/11
f 17/1/11 20/44/11 19/9/11
f 22/45/11 32/46/11 21/47/11
f 5/48/12 33/49/12 3/50/12
f 6/51/13 34/52/13 5/53/13
f 21/10/14 35/54/14 6/55/14
f 21/47/15 36/56/15 37/57/15
f 32/58/16 38/59/16 36/60/16
f 18/3/17 33/61/17 38/62/17
f 39/63/18 40/64/18 41/65/18
f 42/66/19 41/67/19 43/68/19
f 44/69/20 45/70/20 40/71/20
f 40/71/21 46/72/21 41/67/21
f 45/73/22 47/74/22 46/75/22
f 43/76/23 46/75/23 48/77/23
f 48/77/24 42/78/24 43/79/24
f 46/80/25 49/81/25 48/82/25
f 33/83/26 47/74/26 50/84/26
f 50/85/27 38/59/27 33/49/27
f 36/86/28 44/87/28 39/88/28
f 39/89/29 37/90/29 36/60/29
f 37/91/30 49/92/30 35/93/30
f 47/94/31 35/54/31 49/95/31
f 17/1/1 2/96/1 3/2/1
f 19/4/2 1/97/2 2/5/2
f 20/7/3 4/98/3 1/8/3
f 21/10/4 6/99/4 7/11/4
f 23/13/5 8/100/5 4/14/5
f 23/16/6 22/45/6 7/17/6
f 24/19/5 9/101/5 10/20/5
f 26/22/7 11/102/7 9/23/7
f 25/25/6 10/103/6 12/26/6
f 28/28/2 14/104/2 11/29/2
f 27/31/8 12/105/8 13/32/8
f 30/34/1 16/106/1 14/35/1
f 29/37/9 13/107/9 15/38/9
f 31/40/10 15/108/10 16/41/10
f 18/3/11 32/109/11 23/43/11
f 17/1/11 18/110/11 20/44/11
f 22/45/11 23/43/11 32/46/11
f 5/48/32 34/111/32 33/49/32
f 6/51/33 35/112/33 34/52/33
f 21/10/14 37/90/14 35/54/14
f 21/47/34 32/109/34 36/56/34
f 32/58/35 18/113/35 38/59/35
f 18/3/17 3/114/17 33/61/17
f 39/63/18 44/87/18 40/64/18
f 42/66/19 39/115/19 41/67/19
f 44/69/20 50/116/20 45/70/20
f 40/71/21 45/117/21 46/72/21
f 45/73/22 50/118/22 47/74/22
f 43/76/36 41/119/36 46/75/36
f 48/77/24 49/120/24 42/78/24
f 46/80/25 47/94/25 49/81/25
f 33/83/37 34/121/37 47/74/37
f 50/85/38 44/69/38 38/59/38
f 36/86/39 38/122/39 44/87/39
f 39/89/40 42/66/40 37/90/40
f 37/91/41 42/78/41 49/92/41
f 47/94/42 34/111/42 35/54/42
