# Blender v3.1.2 OBJ File: 'untitled.blend'
# www.blender.org
mtllib canh3.mtl
o Cylinder.003_Cylinder.006
v 0.065091 0.089712 0.161204
v -0.020804 0.134381 0.139771
v -0.100535 0.143881 0.081216
v -0.152739 0.115666 0.001228
v -0.163426 0.057297 -0.078759
v -0.129734 -0.015588 -0.137314
v -0.060691 -0.083458 -0.158747
v 0.025204 -0.128127 -0.137314
v 0.104935 -0.137627 -0.078759
v 0.157138 -0.109412 0.001228
v 0.167826 -0.051042 0.081216
v 0.134134 0.021842 0.139771
v 1.275704 1.479523 -1.381011
v 1.232706 1.501884 -1.391741
v 1.192793 1.506640 -1.421053
v 1.166661 1.492515 -1.461094
v 1.161310 1.463296 -1.501135
v 1.178176 1.426811 -1.530447
v 1.212739 1.392836 -1.541176
v 1.255737 1.370474 -1.530447
v 1.295650 1.365719 -1.501135
v 1.321782 1.379843 -1.461094
v 1.327133 1.409062 -1.421053
v 1.310267 1.445548 -1.391741
v 1.764859 2.342677 -1.689205
v 1.736766 2.357287 -1.696215
v 1.710689 2.360394 -1.715366
v 1.693615 2.351166 -1.741528
v 1.690120 2.332075 -1.767689
v 1.701139 2.308238 -1.786840
v 1.723721 2.286040 -1.793849
v 1.751814 2.271430 -1.786840
v 1.777891 2.268323 -1.767689
v 1.794965 2.277551 -1.741528
v 1.798460 2.296642 -1.715366
v 1.787441 2.320480 -1.696215
v 0.640220 0.707480 -0.804993
v 0.699175 0.700456 -0.761697
v 0.500744 0.844586 -0.761697
v 0.525656 0.790694 -0.804993
v 0.720765 0.818370 -0.600112
v 0.669713 0.868554 -0.584264
v 0.606201 0.901583 -0.600112
v 0.547247 0.908608 -0.643408
v 0.737775 0.721319 -0.702552
v 0.576708 0.740510 -0.820841
v 0.508647 0.887745 -0.702553
v 0.745677 0.764478 -0.643408
vt 0.416667 1.000000
vt 0.333333 1.000000
vt 0.333333 1.000000
vt 0.916667 1.000000
vt 1.000000 1.000000
vt 0.916667 1.000000
vt 0.583333 1.000000
vt 0.666667 1.000000
vt 0.583333 1.000000
vt 0.083333 1.000000
vt 0.000000 1.000000
vt 0.000000 1.000000
vt 0.833333 1.000000
vt 0.833333 1.000000
vt 0.250000 1.000000
vt 0.250000 1.000000
vt 0.500000 1.000000
vt 0.500000 1.000000
vt 0.750000 1.000000
vt 0.750000 1.000000
vt 0.166667 1.000000
vt 0.166667 1.000000
vt 0.416667 1.000000
vt 0.666667 1.000000
vt 0.083333 1.000000
vt 1.000000 1.000000
vt 0.916667 1.000000
vt 0.042154 0.370000
vt 0.250000 0.010000
vt 0.457846 0.370000
vt 0.416667 1.000000
vt 0.333333 1.000000
vt 0.583333 1.000000
vt 0.083333 1.000000
vt 0.000000 1.000000
vt 0.833333 1.000000
vt 0.250000 1.000000
vt 0.500000 1.000000
vt 0.750000 1.000000
vt 0.166667 1.000000
vt 0.666667 1.000000
vt 1.000000 1.000000
vt 0.916667 1.000000
vt 0.166667 1.000000
vt 0.083333 1.000000
vt 0.666667 1.000000
vt 0.416667 1.000000
vt 0.250000 1.000000
vt 0.750000 1.000000
vt 0.500000 1.000000
vt 0.333333 1.000000
vt 0.833333 1.000000
vt 0.000000 1.000000
vt 0.583333 1.000000
vt 1.000000 1.000000
vt 0.370000 0.457846
vt 0.250000 0.490000
vt 0.130000 0.457846
vt 0.010000 0.250000
vt 0.042154 0.130000
vt 0.130000 0.042154
vt 0.370000 0.042154
vt 0.457846 0.130000
vt 0.490000 0.250000
vn 0.2771 -0.8147 -0.5094
vn -0.0460 0.3589 0.9322
vn -0.7883 0.1204 -0.6034
vn 0.5842 0.3655 0.7246
vn -0.2368 0.8552 0.4611
vn 0.6434 -0.7496 -0.1555
vn -0.5506 -0.3162 -0.7725
vn -0.5996 0.7925 0.1117
vn 0.8459 -0.4783 0.2360
vn -0.1586 -0.6581 -0.7360
vn -0.8036 0.5268 -0.2771
vn 0.8254 -0.0686 0.5603
vn 0.1939 0.7017 0.6856
vn 0.4885 0.6725 -0.5560
vn 0.4833 -0.4753 -0.7352
vn -0.7022 0.2196 -0.6773
vn 0.3887 0.1065 0.9152
vn -0.4617 0.5262 0.7141
vn 0.7880 -0.5189 -0.3313
vn -0.3518 -0.0629 -0.9340
vn -0.7664 0.5682 0.2997
vn 0.8922 -0.4133 0.1824
vn 0.0748 -0.3108 -0.9475
vn -0.8619 0.4575 -0.2187
vn 0.7405 -0.1783 0.6480
vn 0.1355 0.6282 0.7662
vn 0.8199 -0.0768 0.5674
vn -0.8356 0.4910 -0.2466
vn -0.0974 -0.5765 -0.8113
vn 0.8750 -0.4392 0.2036
vn -0.6627 0.7279 0.1758
vn -0.5115 -0.2619 -0.8184
vn 0.7024 -0.6770 -0.2196
vn -0.3084 0.7788 0.5462
vn 0.5494 0.3144 0.7741
vn -0.7813 0.1294 -0.6106
vn 0.3474 -0.7280 -0.5911
vn 0.7881 -0.5189 -0.3313
usemtl Material
s off
f 37/1/1 21/2/1 38/3/1
f 14/4/2 25/5/2 26/6/2
f 40/7/3 17/8/3 18/9/3
f 41/10/4 13/11/4 42/12/4
f 44/13/5 14/4/5 15/14/5
f 38/3/6 22/15/6 45/16/6
f 46/17/7 18/9/7 19/18/7
f 47/19/8 15/14/8 16/20/8
f 45/16/9 23/21/9 48/22/9
f 37/1/10 19/18/10 20/23/10
f 39/24/11 16/20/11 17/8/11
f 48/22/12 24/25/12 41/10/12
f 42/26/13 14/4/13 43/27/13
f 35/28/14 31/29/14 27/30/14
f 21/2/15 32/31/15 33/32/15
f 17/8/16 30/33/16 18/9/16
f 13/11/17 36/34/17 25/35/17
f 14/4/18 27/36/18 15/14/18
f 22/15/19 33/32/19 34/37/19
f 18/9/20 31/38/20 19/18/20
f 15/14/21 28/39/21 16/20/21
f 23/21/22 34/37/22 35/40/22
f 19/18/23 32/31/23 20/23/23
f 16/20/24 29/41/24 17/8/24
f 24/25/25 35/40/25 36/34/25
f 1/42/26 43/27/26 2/43/26
f 11/44/27 41/10/27 12/45/27
f 5/46/28 47/19/28 39/24/28
f 8/47/29 46/17/29 37/1/29
f 10/48/30 48/22/30 11/44/30
f 4/49/31 44/13/31 47/19/31
f 7/50/32 40/7/32 46/17/32
f 9/51/33 45/16/33 10/48/33
f 2/43/34 44/13/34 3/52/34
f 12/45/35 42/12/35 1/53/35
f 6/54/36 39/24/36 40/7/36
f 9/51/37 37/1/37 38/3/37
f 37/1/1 20/23/1 21/2/1
f 14/4/2 13/55/2 25/5/2
f 40/7/3 39/24/3 17/8/3
f 41/10/4 24/25/4 13/11/4
f 44/13/5 43/27/5 14/4/5
f 38/3/6 21/2/6 22/15/6
f 46/17/7 40/7/7 18/9/7
f 47/19/8 44/13/8 15/14/8
f 45/16/9 22/15/9 23/21/9
f 37/1/10 46/17/10 19/18/10
f 39/24/11 47/19/11 16/20/11
f 48/22/12 23/21/12 24/25/12
f 42/26/13 13/55/13 14/4/13
f 27/30/14 26/56/14 35/28/14
f 26/56/14 25/57/14 35/28/14
f 25/57/14 36/58/14 35/28/14
f 35/28/14 34/59/14 33/60/14
f 33/60/14 32/61/14 31/29/14
f 31/29/14 30/62/14 29/63/14
f 29/63/14 28/64/14 31/29/14
f 28/64/14 27/30/14 31/29/14
f 35/28/14 33/60/14 31/29/14
f 21/2/15 20/23/15 32/31/15
f 17/8/16 29/41/16 30/33/16
f 13/11/17 24/25/17 36/34/17
f 14/4/18 26/6/18 27/36/18
f 22/15/38 21/2/38 33/32/38
f 18/9/20 30/33/20 31/38/20
f 15/14/21 27/36/21 28/39/21
f 23/21/22 22/15/22 34/37/22
f 19/18/23 31/38/23 32/31/23
f 16/20/24 28/39/24 29/41/24
f 24/25/25 23/21/25 35/40/25
f 1/42/26 42/26/26 43/27/26
f 11/44/27 48/22/27 41/10/27
f 5/46/28 4/49/28 47/19/28
f 8/47/29 7/50/29 46/17/29
f 10/48/30 45/16/30 48/22/30
f 4/49/31 3/52/31 44/13/31
f 7/50/32 6/54/32 40/7/32
f 9/51/33 38/3/33 45/16/33
f 2/43/34 43/27/34 44/13/34
f 12/45/35 41/10/35 42/12/35
f 6/54/36 5/46/36 39/24/36
f 9/51/37 8/47/37 37/1/37
