# Blender v3.1.2 OBJ File: 'untitled.blend'
# www.blender.org
mtllib bed.mtl
o Cube.007_Cube.008
v -5.650000 2.189584 2.895000
v -5.650000 0.012783 2.565000
v -5.650000 0.012783 2.895000
v -5.650000 2.189584 2.565000
v -5.320000 0.012783 2.565000
v -5.320000 2.189584 2.565000
v -5.320000 0.012783 2.895000
v -5.320000 2.189584 2.895000
v -5.314758 2.097891 2.895000
v -5.314758 1.332628 2.565000
v -5.314758 1.332628 2.895000
v -5.314758 2.097891 2.565000
v 5.314758 1.332628 2.565000
v 5.314758 2.097891 2.565000
v 5.314758 1.332628 2.895000
v 5.314758 2.097891 2.895000
v 5.650000 1.332627 2.557110
v 5.320000 2.097888 2.557110
v 5.650000 2.097888 2.557110
v 5.320000 1.332627 2.557110
v 5.320000 2.097889 -2.557110
v 5.320000 1.332627 -2.557110
v 5.650000 2.097889 -2.557110
v 5.650000 1.332627 -2.557110
v -5.320000 1.332629 2.557108
v -5.650000 2.097891 2.557108
v -5.320000 2.097891 2.557108
v -5.650000 1.332629 2.557108
v -5.650000 2.097892 -2.557108
v -5.650000 1.332629 -2.557108
v -5.320000 2.097892 -2.557108
v -5.320000 1.332629 -2.557108
v -5.650000 2.189584 -2.565000
v -5.650000 0.012783 -2.895000
v -5.650000 0.012783 -2.565000
v -5.650000 2.189584 -2.895000
v -5.320000 0.012783 -2.895000
v -5.320000 2.189584 -2.895000
v -5.320000 0.012783 -2.565000
v -5.320000 2.189584 -2.565000
v 5.320000 2.189584 -2.565000
v 5.320000 0.012783 -2.895000
v 5.320000 0.012783 -2.565000
v 5.320000 2.189584 -2.895000
v 5.650000 0.012783 -2.895000
v 5.650000 2.189584 -2.895000
v 5.650000 0.012783 -2.565000
v 5.650000 2.189584 -2.565000
v 5.320000 2.189584 2.895000
v 5.320000 0.012783 2.565000
v 5.320000 0.012783 2.895000
v 5.320000 2.189584 2.565000
v 5.650000 0.012783 2.565000
v 5.650000 2.189584 2.565000
v 5.650000 0.012783 2.895000
v 5.650000 2.189584 2.895000
v -5.314750 2.097892 -2.565000
v -5.314750 1.332629 -2.895000
v -5.314750 1.332629 -2.565000
v -5.314750 2.097892 -2.895000
v 5.314751 1.332629 -2.895000
v 5.314751 2.097892 -2.895000
v 5.314751 1.332629 -2.565000
v 5.314751 2.097892 -2.565000
v -5.314750 2.160170 2.557110
v -5.314750 1.830170 -2.557110
v -5.314750 1.830170 2.557110
v -5.314750 2.160171 -2.557110
v 5.314751 1.830170 -2.557110
v 5.314751 2.160171 -2.557110
v 5.314751 1.830170 2.557110
v 5.314751 2.160170 2.557110
vt 0.625000 0.000000
vt 0.375000 0.250000
vt 0.375000 0.000000
vt 0.625000 0.250000
vt 0.375000 0.500000
vt 0.625000 0.500000
vt 0.375000 0.750000
vt 0.625000 0.750000
vt 0.375000 1.000000
vt 0.125000 0.750000
vt 0.125000 0.500000
vt 0.875000 0.500000
vt 0.625000 0.000000
vt 0.375000 0.250000
vt 0.375000 0.000000
vt 0.625000 0.250000
vt 0.375000 0.500000
vt 0.625000 0.500000
vt 0.375000 0.750000
vt 0.625000 0.750000
vt 0.375000 1.000000
vt 0.125000 0.750000
vt 0.125000 0.500000
vt 0.875000 0.500000
vt 0.625000 0.000000
vt 0.375000 0.000000
vt 0.375000 0.250000
vt 0.625000 0.250000
vt 0.375000 0.500000
vt 0.625000 0.500000
vt 0.375000 0.750000
vt 0.625000 0.750000
vt 0.375000 1.000000
vt 0.125000 0.500000
vt 0.125000 0.750000
vt 0.875000 0.500000
vt 0.625000 0.000000
vt 0.375000 0.000000
vt 0.375000 0.250000
vt 0.625000 0.250000
vt 0.375000 0.500000
vt 0.625000 0.500000
vt 0.375000 0.750000
vt 0.625000 0.750000
vt 0.375000 1.000000
vt 0.125000 0.500000
vt 0.125000 0.750000
vt 0.875000 0.500000
vt 0.625000 0.000000
vt 0.375000 0.250000
vt 0.375000 0.000000
vt 0.625000 0.250000
vt 0.375000 0.500000
vt 0.625000 0.500000
vt 0.375000 0.750000
vt 0.625000 0.750000
vt 0.375000 1.000000
vt 0.125000 0.750000
vt 0.125000 0.500000
vt 0.875000 0.500000
vt 0.625000 0.000000
vt 0.375000 0.250000
vt 0.375000 0.000000
vt 0.625000 0.250000
vt 0.375000 0.500000
vt 0.625000 0.500000
vt 0.375000 0.750000
vt 0.625000 0.750000
vt 0.375000 1.000000
vt 0.125000 0.750000
vt 0.125000 0.500000
vt 0.875000 0.500000
vt 0.625000 0.000000
vt 0.375000 0.250000
vt 0.375000 0.000000
vt 0.625000 0.250000
vt 0.375000 0.500000
vt 0.625000 0.500000
vt 0.375000 0.750000
vt 0.625000 0.750000
vt 0.375000 1.000000
vt 0.125000 0.750000
vt 0.125000 0.500000
vt 0.875000 0.500000
vt 0.625000 0.000000
vt 0.375000 0.250000
vt 0.375000 0.000000
vt 0.625000 0.250000
vt 0.375000 0.500000
vt 0.625000 0.500000
vt 0.375000 0.750000
vt 0.625000 0.750000
vt 0.375000 1.000000
vt 0.125000 0.750000
vt 0.125000 0.500000
vt 0.875000 0.500000
vt 0.625000 1.000000
vt 0.875000 0.750000
vt 0.625000 1.000000
vt 0.875000 0.750000
vt 0.625000 1.000000
vt 0.875000 0.750000
vt 0.625000 1.000000
vt 0.875000 0.750000
vt 0.625000 1.000000
vt 0.875000 0.750000
vt 0.625000 1.000000
vt 0.875000 0.750000
vt 0.625000 1.000000
vt 0.875000 0.750000
vt 0.625000 1.000000
vt 0.875000 0.750000
vt 0.625000 0.000000
vt 0.375000 0.250000
vt 0.375000 0.000000
vt 0.625000 0.250000
vt 0.375000 0.500000
vt 0.625000 0.500000
vt 0.375000 0.750000
vt 0.625000 0.750000
vt 0.375000 1.000000
vt 0.125000 0.750000
vt 0.125000 0.500000
vt 0.875000 0.500000
vt 0.625000 1.000000
vt 0.875000 0.750000
vn -1.0000 0.0000 0.0000
vn 0.0000 0.0000 -1.0000
vn 1.0000 -0.0000 0.0000
vn 0.0000 -0.0000 1.0000
vn 0.0000 -1.0000 -0.0000
vn 0.0000 1.0000 0.0000
usemtl kasur_kayu.001
s 1
f 1/1/1 2/2/1 3/3/1
f 4/4/2 5/5/2 2/2/2
f 6/6/3 7/7/3 5/5/3
f 8/8/4 3/9/4 7/7/4
f 5/5/5 3/10/5 2/11/5
f 4/12/6 8/8/6 6/6/6
f 9/13/1 10/14/1 11/15/1
f 12/16/2 13/17/2 10/14/2
f 14/18/3 15/19/3 13/17/3
f 16/20/4 11/21/4 15/19/4
f 13/17/5 11/22/5 10/23/5
f 12/24/6 16/20/6 14/18/6
f 17/25/4 19/26/4 18/27/4
f 20/28/1 18/27/1 21/29/1
f 22/30/2 21/29/2 23/31/2
f 24/32/3 23/31/3 19/33/3
f 21/29/6 18/34/6 19/35/6
f 20/36/5 22/30/5 24/32/5
f 25/37/4 27/38/4 26/39/4
f 28/40/1 26/39/1 29/41/1
f 30/42/2 29/41/2 31/43/2
f 32/44/3 31/43/3 27/45/3
f 29/41/6 26/46/6 27/47/6
f 28/48/5 30/42/5 32/44/5
f 33/49/1 34/50/1 35/51/1
f 36/52/2 37/53/2 34/50/2
f 38/54/3 39/55/3 37/53/3
f 40/56/4 35/57/4 39/55/4
f 37/53/5 35/58/5 34/59/5
f 36/60/6 40/56/6 38/54/6
f 41/61/1 42/62/1 43/63/1
f 44/64/2 45/65/2 42/62/2
f 46/66/3 47/67/3 45/65/3
f 48/68/4 43/69/4 47/67/4
f 45/65/5 43/70/5 42/71/5
f 44/72/6 48/68/6 46/66/6
f 49/73/1 50/74/1 51/75/1
f 52/76/2 53/77/2 50/74/2
f 54/78/3 55/79/3 53/77/3
f 56/80/4 51/81/4 55/79/4
f 53/77/5 51/82/5 50/83/5
f 52/84/6 56/80/6 54/78/6
f 57/85/1 58/86/1 59/87/1
f 60/88/2 61/89/2 58/86/2
f 62/90/3 63/91/3 61/89/3
f 64/92/4 59/93/4 63/91/4
f 61/89/5 59/94/5 58/95/5
f 60/96/6 64/92/6 62/90/6
f 1/1/1 4/4/1 2/2/1
f 4/4/2 6/6/2 5/5/2
f 6/6/3 8/8/3 7/7/3
f 8/8/4 1/97/4 3/9/4
f 5/5/5 7/7/5 3/10/5
f 4/12/6 1/98/6 8/8/6
f 9/13/1 12/16/1 10/14/1
f 12/16/2 14/18/2 13/17/2
f 14/18/3 16/20/3 15/19/3
f 16/20/4 9/99/4 11/21/4
f 13/17/5 15/19/5 11/22/5
f 12/24/6 9/100/6 16/20/6
f 17/25/4 18/27/4 20/28/4
f 20/28/1 21/29/1 22/30/1
f 22/30/2 23/31/2 24/32/2
f 24/32/3 19/33/3 17/101/3
f 21/29/6 19/35/6 23/31/6
f 20/36/5 24/32/5 17/102/5
f 25/37/4 26/39/4 28/40/4
f 28/40/1 29/41/1 30/42/1
f 30/42/2 31/43/2 32/44/2
f 32/44/3 27/45/3 25/103/3
f 29/41/6 27/47/6 31/43/6
f 28/48/5 32/44/5 25/104/5
f 33/49/1 36/52/1 34/50/1
f 36/52/2 38/54/2 37/53/2
f 38/54/3 40/56/3 39/55/3
f 40/56/4 33/105/4 35/57/4
f 37/53/5 39/55/5 35/58/5
f 36/60/6 33/106/6 40/56/6
f 41/61/1 44/64/1 42/62/1
f 44/64/2 46/66/2 45/65/2
f 46/66/3 48/68/3 47/67/3
f 48/68/4 41/107/4 43/69/4
f 45/65/5 47/67/5 43/70/5
f 44/72/6 41/108/6 48/68/6
f 49/73/1 52/76/1 50/74/1
f 52/76/2 54/78/2 53/77/2
f 54/78/3 56/80/3 55/79/3
f 56/80/4 49/109/4 51/81/4
f 53/77/5 55/79/5 51/82/5
f 52/84/6 49/110/6 56/80/6
f 57/85/1 60/88/1 58/86/1
f 60/88/2 62/90/2 61/89/2
f 62/90/3 64/92/3 63/91/3
f 64/92/4 57/111/4 59/93/4
f 61/89/5 63/91/5 59/94/5
f 60/96/6 57/112/6 64/92/6
usemtl kasur_fabric.001
f 65/113/1 66/114/1 67/115/1
f 68/116/2 69/117/2 66/114/2
f 70/118/3 71/119/3 69/117/3
f 72/120/4 67/121/4 71/119/4
f 69/117/5 67/122/5 66/123/5
f 68/124/6 72/120/6 70/118/6
f 65/113/1 68/116/1 66/114/1
f 68/116/2 70/118/2 69/117/2
f 70/118/3 72/120/3 71/119/3
f 72/120/4 65/125/4 67/121/4
f 69/117/5 71/119/5 67/122/5
f 68/124/6 65/126/6 72/120/6
