# Blender v3.1.2 OBJ File: 'untitled.blend'
# www.blender.org
mtllib than.mtl
o Cylinder
v 0.000000 0.000000 0.803813
v 0.000000 2.000000 0.579355
v -0.401907 0.000000 0.696123
v -0.227250 2.000000 0.518463
v -0.696123 0.000000 0.401907
v -0.393609 2.000000 0.352105
v -0.803813 0.000000 -0.000000
v -0.454501 2.000000 0.124854
v -0.696123 0.000000 -0.401907
v -0.393609 2.000000 -0.102396
v -0.401907 0.000000 -0.696123
v -0.227250 2.000000 -0.268755
v 0.000000 0.000000 -0.803813
v 0.000000 2.000000 -0.329647
v 0.401907 0.000000 -0.696123
v 0.227250 2.000000 -0.268755
v 0.696123 0.000000 -0.401907
v 0.393609 2.000000 -0.102396
v 0.803813 0.000000 0.000000
v 0.454501 2.000000 0.124854
v 0.696123 0.000000 0.401907
v 0.393609 2.000000 0.352105
v 0.401907 0.000000 0.696123
v 0.227251 2.000000 0.518463
v 0.346923 4.626714 0.735919
v 0.172816 4.626714 0.689267
v 0.045361 4.626714 0.561812
v -0.001291 4.626714 0.387705
v 0.045361 4.626714 0.213598
v 0.172816 4.626714 0.086143
v 0.346922 4.626714 0.039491
v 0.521029 4.626714 0.086143
v 0.648484 4.626714 0.213598
v 0.695136 4.626710 0.387705
v 0.648484 4.626714 0.561812
v 0.521030 4.626714 0.689267
v 0.271434 7.102138 1.019040
v 0.143126 7.102138 0.984662
v 0.049197 7.102138 0.890734
v 0.014817 7.102138 0.762425
v 0.049197 7.102138 0.634116
v 0.143125 7.102138 0.540188
v 0.271434 7.102138 0.505807
v 0.399743 7.102138 0.540188
v 0.493672 7.102140 0.634116
v 0.528052 7.102138 0.762425
v 0.493672 7.102138 0.890734
v 0.399743 7.102138 0.984662
v -0.163515 8.512321 0.909515
v -0.243417 8.512321 0.888105
v -0.301910 8.512321 0.829613
v -0.323319 8.512321 0.749711
v -0.301910 8.512321 0.669809
v -0.243417 8.512321 0.611316
v -0.163515 8.512321 0.589906
v -0.083613 8.512320 0.611316
v -0.025120 8.512321 0.669809
v -0.003711 8.512321 0.749711
v -0.025120 8.512321 0.829613
v -0.083613 8.512321 0.888105
vt 1.000000 0.500000
vt 0.916667 1.000000
vt 0.916667 0.500000
vt 0.833333 1.000000
vt 0.833333 0.500000
vt 0.750000 1.000000
vt 0.750000 0.500000
vt 0.666667 1.000000
vt 0.666667 0.500000
vt 0.583333 1.000000
vt 0.583333 0.500000
vt 0.500000 1.000000
vt 0.500000 0.500000
vt 0.416667 0.500000
vt 0.416667 1.000000
vt 0.333333 0.500000
vt 0.333333 1.000000
vt 0.250000 0.500000
vt 0.250000 1.000000
vt 0.166667 0.500000
vt 0.166667 1.000000
vt 0.250000 1.000000
vt 0.166667 1.000000
vt 0.083333 0.500000
vt 0.083333 1.000000
vt 0.000000 0.500000
vt 0.510000 0.250000
vt 0.630000 0.457846
vt 0.990000 0.250000
vt 0.333333 1.000000
vt 0.416667 1.000000
vt 0.333333 1.000000
vt 0.416667 1.000000
vt 0.500000 1.000000
vt 0.583333 1.000000
vt 0.666667 1.000000
vt 0.000000 1.000000
vt 0.000000 1.000000
vt 1.000000 1.000000
vt 0.916667 1.000000
vt 0.750000 1.000000
vt 0.083333 1.000000
vt 0.833333 1.000000
vt 0.916667 1.000000
vt 1.000000 1.000000
vt 0.916667 1.000000
vt 0.583333 1.000000
vt 0.083333 1.000000
vt 0.000000 1.000000
vt 0.833333 1.000000
vt 0.250000 1.000000
vt 0.500000 1.000000
vt 0.750000 1.000000
vt 0.166667 1.000000
vt 0.666667 1.000000
vt 1.000000 1.000000
vt 0.042154 0.370000
vt 0.250000 0.010000
vt 0.457846 0.370000
vt 0.333333 1.000000
vt 0.583333 1.000000
vt 0.083333 1.000000
vt 0.000000 1.000000
vt 0.833333 1.000000
vt 0.250000 1.000000
vt 0.500000 1.000000
vt 0.750000 1.000000
vt 0.166667 1.000000
vt 0.416667 1.000000
vt 0.666667 1.000000
vt 0.750000 0.490000
vt 0.870000 0.457846
vt 0.957846 0.370000
vt 0.957846 0.130000
vt 0.870000 0.042154
vt 0.750000 0.010000
vt 0.630000 0.042154
vt 0.542154 0.130000
vt 0.542154 0.370000
vt 1.000000 1.000000
vt 0.370000 0.457846
vt 0.250000 0.490000
vt 0.130000 0.457846
vt 0.010000 0.250000
vt 0.042154 0.130000
vt 0.130000 0.042154
vt 0.370000 0.042154
vt 0.457846 0.130000
vt 0.490000 0.250000
vn -0.2573 0.1078 0.9603
vn -0.7017 0.1236 0.7017
vn -0.9549 0.1508 0.2559
vn -0.9498 0.1818 -0.2545
vn -0.6916 0.2082 -0.6916
vn -0.2523 0.2232 -0.9416
vn 0.2523 0.2232 -0.9416
vn 0.6916 0.2082 -0.6916
vn 0.9498 0.1818 -0.2545
vn 0.9549 0.1508 0.2559
vn 0.9597 -0.1136 0.2571
vn 0.7017 0.1236 0.7017
vn 0.2573 0.1078 0.9603
vn 0.0000 -1.0000 0.0000
vn 0.6977 0.1622 -0.6978
vn 0.9640 -0.0625 -0.2583
vn 0.7070 0.0165 -0.7070
vn 0.2575 0.1010 -0.9610
vn -0.2552 0.1675 -0.9523
vn -0.6929 0.1992 -0.6929
vn -0.9485 0.1891 -0.2542
vn 0.2577 -0.0914 0.9619
vn -0.2587 -0.0234 0.9657
vn -0.9565 0.1394 0.2563
vn 0.7016 -0.1241 0.7016
vn -0.7058 0.0616 0.7058
vn -0.2588 -0.0048 0.9659
vn -0.7020 0.1203 -0.7020
vn 0.2575 -0.1020 0.9609
vn -0.7041 -0.0925 0.7041
vn 0.9607 0.1038 -0.2574
vn -0.2550 0.1715 -0.9516
vn -0.9654 -0.0329 0.2587
vn 0.9656 0.0260 0.2587
vn 0.2543 0.1865 -0.9490
vn -0.9649 0.0454 -0.2586
vn 0.7062 -0.0497 0.7062
vn -0.2570 -0.1175 0.9592
vn 0.0000 1.0000 -0.0000
vn 0.6813 0.2679 -0.6813
vn -0.6984 -0.1562 -0.6984
vn 0.2558 0.1530 0.9545
vn -0.6997 -0.1439 0.6998
vn 0.9083 0.3403 -0.2434
vn -0.2588 -0.0222 -0.9657
vn -0.9415 -0.2235 0.2523
vn 0.9069 0.3442 0.2430
vn 0.2564 0.1362 -0.9569
vn -0.9405 -0.2278 -0.2520
vn 0.6790 0.2792 0.6790
vn 0.6977 0.1622 -0.6977
vn 0.0000 1.0000 -0.0001
vn 0.2558 0.1530 0.9546
usemtl Material
s off
f 1/1/1 4/2/1 3/3/1
f 3/3/2 6/4/2 5/5/2
f 5/5/3 8/6/3 7/7/3
f 7/7/4 10/8/4 9/9/4
f 9/9/5 12/10/5 11/11/5
f 11/11/6 14/12/6 13/13/6
f 14/12/7 15/14/7 13/13/7
f 16/15/8 17/16/8 15/14/8
f 18/17/9 19/18/9 17/16/9
f 20/19/10 21/20/10 19/18/10
f 22/21/11 34/22/11 35/23/11
f 22/21/12 23/24/12 21/20/12
f 24/25/13 1/26/13 23/24/13
f 19/27/14 23/28/14 7/29/14
f 33/30/15 44/31/15 45/32/15
f 20/19/16 33/30/16 34/22/16
f 18/17/17 32/33/17 33/30/17
f 16/15/18 31/34/18 32/33/18
f 14/12/19 30/35/19 31/34/19
f 12/10/20 29/36/20 30/35/20
f 8/6/21 29/36/21 10/8/21
f 24/25/22 25/37/22 2/38/22
f 2/39/23 26/40/23 4/2/23
f 6/4/24 28/41/24 8/6/24
f 22/21/25 36/42/25 24/25/25
f 4/2/26 27/43/26 6/4/26
f 38/44/27 49/45/27 50/46/27
f 29/36/28 42/47/28 30/35/28
f 25/37/29 48/48/29 37/49/29
f 26/40/30 39/50/30 27/43/30
f 34/22/31 45/32/31 46/51/31
f 30/35/32 43/52/32 31/34/32
f 27/43/33 40/53/33 28/41/33
f 35/23/34 46/51/34 47/54/34
f 32/33/35 43/52/35 44/31/35
f 28/41/36 41/55/36 29/36/36
f 36/42/37 47/54/37 48/48/37
f 25/56/38 38/44/38 26/40/38
f 59/57/39 55/58/39 51/59/39
f 44/31/40 57/60/40 45/32/40
f 41/55/41 54/61/41 42/47/41
f 37/49/42 60/62/42 49/63/42
f 39/50/43 50/46/43 51/64/43
f 45/32/44 58/65/44 46/51/44
f 42/47/45 55/66/45 43/52/45
f 40/53/46 51/64/46 52/67/46
f 47/54/47 58/65/47 59/68/47
f 43/52/48 56/69/48 44/31/48
f 40/53/49 53/70/49 41/55/49
f 48/48/50 59/68/50 60/62/50
f 1/1/1 2/39/1 4/2/1
f 3/3/2 4/2/2 6/4/2
f 5/5/3 6/4/3 8/6/3
f 7/7/4 8/6/4 10/8/4
f 9/9/5 10/8/5 12/10/5
f 11/11/6 12/10/6 14/12/6
f 14/12/7 16/15/7 15/14/7
f 16/15/8 18/17/8 17/16/8
f 18/17/9 20/19/9 19/18/9
f 20/19/10 22/21/10 21/20/10
f 22/21/11 20/19/11 34/22/11
f 22/21/12 24/25/12 23/24/12
f 24/25/13 2/38/13 1/26/13
f 23/28/14 1/71/14 7/29/14
f 1/71/14 3/72/14 7/29/14
f 3/72/14 5/73/14 7/29/14
f 7/29/14 9/74/14 11/75/14
f 11/75/14 13/76/14 7/29/14
f 13/76/14 15/77/14 7/29/14
f 15/77/14 17/78/14 19/27/14
f 19/27/14 21/79/14 23/28/14
f 15/77/14 19/27/14 7/29/14
f 33/30/51 32/33/51 44/31/51
f 20/19/16 18/17/16 33/30/16
f 18/17/17 16/15/17 32/33/17
f 16/15/18 14/12/18 31/34/18
f 14/12/19 12/10/19 30/35/19
f 12/10/20 10/8/20 29/36/20
f 8/6/21 28/41/21 29/36/21
f 24/25/22 36/42/22 25/37/22
f 2/39/23 25/56/23 26/40/23
f 6/4/24 27/43/24 28/41/24
f 22/21/25 35/23/25 36/42/25
f 4/2/26 26/40/26 27/43/26
f 38/44/27 37/80/27 49/45/27
f 29/36/28 41/55/28 42/47/28
f 25/37/29 36/42/29 48/48/29
f 26/40/30 38/44/30 39/50/30
f 34/22/31 33/30/31 45/32/31
f 30/35/32 42/47/32 43/52/32
f 27/43/33 39/50/33 40/53/33
f 35/23/34 34/22/34 46/51/34
f 32/33/35 31/34/35 43/52/35
f 28/41/36 40/53/36 41/55/36
f 36/42/37 35/23/37 47/54/37
f 25/56/38 37/80/38 38/44/38
f 51/59/39 50/81/39 59/57/39
f 50/81/39 49/82/39 59/57/39
f 49/82/52 60/83/52 59/57/52
f 59/57/39 58/84/39 55/58/39
f 58/84/39 57/85/39 55/58/39
f 57/85/52 56/86/52 55/58/52
f 55/58/39 54/87/39 53/88/39
f 53/88/39 52/89/39 55/58/39
f 52/89/39 51/59/39 55/58/39
f 44/31/40 56/69/40 57/60/40
f 41/55/41 53/70/41 54/61/41
f 37/49/53 48/48/53 60/62/53
f 39/50/43 38/44/43 50/46/43
f 45/32/44 57/60/44 58/65/44
f 42/47/45 54/61/45 55/66/45
f 40/53/46 39/50/46 51/64/46
f 47/54/47 46/51/47 58/65/47
f 43/52/48 55/66/48 56/69/48
f 40/53/49 52/67/49 53/70/49
f 48/48/50 47/54/50 59/68/50
