# Blender v3.1.2 OBJ File: ''
# www.blender.org
mtllib canhtulanh1.mtl
o canhtulanh1.001
v -2.591204 3.297470 0.301355
v -2.591204 2.332101 0.301355
v -2.487589 2.332101 0.301355
v -2.591204 3.297470 0.374655
v -2.487589 3.297470 0.374655
v -2.487589 2.332102 0.374655
v -2.591204 2.332102 0.374655
v -2.487589 3.297470 0.301355
v -2.487589 3.200933 0.374655
v -2.591204 3.200933 0.301355
v -2.591204 3.200933 0.374655
v -2.487589 3.200933 0.301355
v -2.487589 2.440706 0.374655
v -2.591204 2.440706 0.374655
v -2.487589 2.440705 0.301355
v -2.591204 2.440705 0.301355
v -2.337589 2.440706 0.374655
v -2.337589 2.332102 0.374655
v -2.337589 2.332101 0.301355
v -2.337589 2.440705 0.301355
v -2.337589 3.297470 0.374655
v -2.337589 3.297470 0.301355
v -2.337589 3.200933 0.374655
v -2.337589 3.200933 0.301355
v -2.272336 3.583874 2.580498
v -2.339607 0.415362 2.580485
v -2.272336 0.415362 2.580497
v -2.339145 0.415362 -0.000419
v -2.271874 3.583875 -0.000406
v -2.271874 0.415362 -0.000407
v -2.339607 3.583874 2.580486
v -2.272325 0.477002 2.516914
v -2.207525 3.522234 2.516722
v -2.272325 3.522234 2.516914
v -2.271886 0.477002 0.063177
v -2.271886 3.522235 0.063178
v -2.207086 0.477002 0.062986
v -2.207525 0.477002 2.516722
v -2.207085 3.522235 0.062987
v -2.339145 3.583875 -0.000418
vt 0.625000 0.000000
vt 0.375000 0.250000
vt 0.375000 0.000000
vt 0.625000 0.250000
vt 0.600000 0.500000
vt 0.600000 0.250000
vt 0.625000 0.500000
vt 0.600000 0.750000
vt 0.625000 0.750000
vt 0.375000 1.000000
vt 0.375000 0.750000
vt 0.375000 0.500000
vt 0.350000 0.750000
vt 0.350000 0.500000
vt 0.850000 0.500000
vt 0.850000 0.750000
vt 0.850000 0.750000
vt 0.653125 0.500000
vt 0.653125 0.750000
vt 0.153125 0.750000
vt 0.153125 0.500000
vt 0.403125 0.750000
vt 0.403125 0.500000
vt 0.403125 0.250000
vt 0.375000 0.500000
vt 0.375000 0.750000
vt 0.125000 0.750000
vt 0.125000 0.500000
vt 0.653125 0.500000
vt 0.850000 0.500000
vt 0.875000 0.750000
vt 0.625000 0.500000
vt 0.653125 0.750000
vt 0.625000 0.750000
vt 0.625000 0.750000
vt 0.600000 0.750000
vt 0.153125 0.500000
vt 0.375000 0.750000
vt 0.375000 0.500000
vt 0.625000 0.250000
vt 0.625000 0.250000
vt 0.375000 0.750000
vt 0.625000 1.000000
vt 0.375000 0.750000
vt 0.875000 0.500000
vt 0.625000 0.750000
vt 0.125000 0.500000
vt 0.403125 0.750000
vt 0.350000 0.500000
vt 0.625000 0.000000
vt 0.375000 1.000000
vt 0.000000 0.000000
vt 0.000000 0.000000
vt 0.000000 0.000000
vt 0.000000 0.000000
vt 0.000000 0.000000
vt 0.000000 0.000000
vt 0.000000 0.000000
vt 0.000000 0.000000
vt 0.000000 0.000000
vt 0.000000 0.000000
vt 0.000000 0.000000
vt 0.000000 0.000000
vt 0.000000 0.000000
vt 0.000000 0.000000
vt 0.000000 0.000000
vt 0.000000 0.000000
vn 0.0000 1.0000 -0.0000
vn 1.0000 0.0000 0.0000
vn 0.0000 0.0000 -1.0000
vn 0.0000 -1.0000 0.0000
vn 0.0000 0.0000 1.0000
vn -1.0000 0.0000 0.0000
vn -0.0002 -0.0000 1.0000
vn 0.0002 0.0000 -1.0000
vn 0.0030 -0.0000 1.0000
vn -1.0000 -0.0000 -0.0002
vn 1.0000 -0.0000 0.0002
vn -0.0029 0.0000 -1.0000
usemtl Handle
s off
f 6/1/1 2/2/1 7/3/1
f 1/4/2 11/5/2 10/6/2
f 4/7/3 9/8/3 11/5/3
f 4/9/4 8/10/4 5/11/4
f 8/12/5 10/13/5 12/14/5
f 9/15/1 24/16/1 12/17/1
f 13/18/6 12/17/6 15/19/6
f 12/14/5 16/20/5 15/21/5
f 11/5/3 13/22/3 14/23/3
f 10/6/2 14/23/2 16/24/2
f 16/24/2 7/25/2 2/2/2
f 14/23/3 6/26/3 7/25/3
f 15/21/5 2/27/5 3/28/5
f 15/19/4 17/29/4 13/18/4
f 23/30/6 22/31/6 24/16/6
f 18/32/6 20/33/6 19/34/6
f 5/35/3 23/36/3 9/8/3
f 3/28/5 20/37/5 15/21/5
f 13/22/3 18/38/3 6/26/3
f 12/14/5 22/39/5 8/12/5
f 6/1/1 19/40/1 3/41/1
f 8/10/4 21/42/4 5/11/4
f 6/1/1 3/41/1 2/2/1
f 1/4/2 4/7/2 11/5/2
f 4/7/3 5/35/3 9/8/3
f 4/9/4 1/43/4 8/10/4
f 8/12/5 1/44/5 10/13/5
f 9/15/1 23/30/1 24/16/1
f 13/18/6 9/15/6 12/17/6
f 12/14/5 10/13/5 16/20/5
f 11/5/3 9/8/3 13/22/3
f 10/6/2 11/5/2 14/23/2
f 16/24/2 14/23/2 7/25/2
f 14/23/3 13/22/3 6/26/3
f 15/21/5 16/20/5 2/27/5
f 15/19/4 20/33/4 17/29/4
f 23/30/6 21/45/6 22/31/6
f 18/32/6 17/29/6 20/33/6
f 5/35/3 21/46/3 23/36/3
f 3/28/5 19/47/5 20/37/5
f 13/22/3 17/48/3 18/38/3
f 12/14/5 24/49/5 22/39/5
f 6/1/1 18/50/1 19/40/1
f 8/10/4 22/51/4 21/42/4
usemtl Cabinet
s 1
f 25/52/7 26/53/7 27/54/7
f 28/55/8 29/56/8 30/57/8
f 26/53/4 30/57/4 27/54/4
f 29/56/1 31/58/1 25/52/1
f 32/59/9 33/60/9 34/61/9
f 31/58/10 28/55/10 26/53/10
f 34/61/11 27/54/11 32/59/11
f 35/62/11 29/56/11 36/63/11
f 32/59/11 30/57/11 35/62/11
f 34/61/11 29/56/11 25/52/11
f 37/64/11 33/60/11 38/65/11
f 36/63/1 33/60/1 39/66/1
f 36/63/12 37/64/12 35/62/12
f 35/62/4 38/65/4 32/59/4
f 25/52/7 31/58/7 26/53/7
f 28/55/8 40/67/8 29/56/8
f 26/53/4 28/55/4 30/57/4
f 29/56/1 40/67/1 31/58/1
f 32/59/9 38/65/9 33/60/9
f 31/58/10 40/67/10 28/55/10
f 34/61/11 25/52/11 27/54/11
f 35/62/11 30/57/11 29/56/11
f 32/59/11 27/54/11 30/57/11
f 34/61/11 36/63/11 29/56/11
f 37/64/11 39/66/11 33/60/11
f 36/63/1 34/61/1 33/60/1
f 36/63/12 39/66/12 37/64/12
f 35/62/4 37/64/4 38/65/4
