# Blender v3.1.2 OBJ File: ''
# www.blender.org
mtllib fan.mtl
o Cylinder
v 0.000000 -0.134000 -1.000000
v 0.000000 0.134000 -1.000000
v 0.382683 -0.134000 -0.923880
v 0.382683 0.134000 -0.923880
v 0.707107 -0.134000 -0.707107
v 0.707107 0.134000 -0.707107
v 0.923880 -0.134000 -0.382683
v 0.923880 0.134000 -0.382683
v 1.000000 -0.134000 0.000000
v 1.000000 0.134000 0.000000
v 0.923880 -0.134000 0.382683
v 0.923880 0.134000 0.382683
v 0.707107 -0.134000 0.707107
v 0.707107 0.134000 0.707107
v 0.382683 -0.134000 0.923880
v 0.382683 0.134000 0.923880
v -0.000000 -0.134000 1.000000
v -0.000000 0.134000 1.000000
v -0.382683 -0.134000 0.923880
v -0.382683 0.134000 0.923880
v -0.707107 -0.134000 0.707107
v -0.707107 0.134000 0.707107
v -0.923880 -0.134000 0.382684
v -0.923880 0.134000 0.382684
v -1.000000 -0.134000 -0.000000
v -1.000000 0.134000 -0.000000
v -0.923879 -0.134000 -0.382684
v -0.923879 0.134000 -0.382684
v -0.707107 -0.134000 -0.707107
v -0.707107 0.134000 -0.707107
v -0.382683 -0.134000 -0.923880
v -0.382683 0.134000 -0.923880
v 0.000000 -0.284000 -0.426000
v 0.163023 -0.284000 -0.393573
v 0.301228 -0.284000 -0.301227
v 0.393573 -0.284000 -0.163023
v 0.426000 -0.284000 0.000000
v 0.393573 -0.284000 0.163023
v 0.301228 -0.284000 0.301227
v 0.163023 -0.284000 0.393573
v -0.000000 -0.284000 0.426000
v -0.163023 -0.284000 0.393573
v -0.301227 -0.284000 0.301228
v -0.393573 -0.284000 0.163023
v -0.426000 -0.284000 -0.000000
v -0.393573 -0.284000 -0.163023
v -0.301228 -0.284000 -0.301227
v -0.163023 -0.284000 -0.393573
v 0.000000 0.139733 -0.125000
v 0.000000 1.689733 -0.125000
v 0.047835 0.139733 -0.115485
v 0.047835 1.689733 -0.115485
v 0.088388 0.139733 -0.088388
v 0.088388 1.689733 -0.088388
v 0.115485 0.139733 -0.047835
v 0.115485 1.689733 -0.047835
v 0.125000 0.139733 0.000000
v 0.125000 1.689733 0.000000
v 0.115485 0.139733 0.047835
v 0.115485 1.689733 0.047835
v 0.088388 0.139733 0.088388
v 0.088388 1.689733 0.088388
v 0.047835 0.139733 0.115485
v 0.047835 1.689733 0.115485
v -0.000000 0.139733 0.125000
v -0.000000 1.689733 0.125000
v -0.047835 0.139733 0.115485
v -0.047835 1.689733 0.115485
v -0.088388 0.139733 0.088388
v -0.088388 1.689733 0.088388
v -0.115485 0.139733 0.047835
v -0.115485 1.689733 0.047835
v -0.125000 0.139733 -0.000000
v -0.125000 1.689733 -0.000000
v -0.115485 0.139733 -0.047835
v -0.115485 1.689733 -0.047835
v -0.088388 0.139733 -0.088388
v -0.088388 1.689733 -0.088388
v -0.047835 0.139733 -0.115485
v -0.047835 1.689733 -0.115485
v 3.990836 -0.000000 0.469176
v 0.961317 0.000000 -0.469176
v 0.961317 -0.000000 0.469176
v 3.990836 0.000000 -0.469176
v -0.167063 0.000000 -1.056573
v -2.673376 0.000000 -2.999993
v -0.935715 0.000000 -0.518357
v -1.904724 0.000001 -3.538209
v -1.805827 -0.000001 3.589692
v 0.112091 -0.000000 1.063810
v -0.769671 -0.000000 0.742875
v -0.924065 -0.000001 3.910627
vt 1.000000 1.000000
vt 0.937500 0.500000
vt 1.000000 0.500000
vt 0.937500 1.000000
vt 0.875000 0.500000
vt 0.875000 1.000000
vt 0.812500 0.500000
vt 0.812500 1.000000
vt 0.750000 0.500000
vt 0.750000 1.000000
vt 0.687500 0.500000
vt 0.687500 1.000000
vt 0.625000 0.500000
vt 0.625000 1.000000
vt 0.562500 0.500000
vt 0.562500 1.000000
vt 0.500000 0.500000
vt 0.500000 1.000000
vt 0.437500 0.500000
vt 0.437500 1.000000
vt 0.375000 0.500000
vt 0.375000 1.000000
vt 0.312500 0.500000
vt 0.312500 1.000000
vt 0.250000 0.500000
vt 0.250000 1.000000
vt 0.187500 0.500000
vt 0.187500 1.000000
vt 0.125000 0.500000
vt 0.419706 0.419706
vt 0.080294 0.419706
vt 0.080294 0.080294
vt 0.125000 1.000000
vt 0.062500 0.500000
vt 0.062500 1.000000
vt 0.000000 0.500000
vt 0.062500 0.500000
vt 0.841844 0.028269
vt 0.528269 0.158156
vt 0.658156 0.471731
vt 0.750000 0.500000
vt 0.812500 0.500000
vt 0.500000 0.500000
vt 0.187500 0.500000
vt 0.937500 0.500000
vt 0.562500 0.500000
vt 0.625000 0.500000
vt 0.250000 0.500000
vt 0.312500 0.500000
vt 0.437500 0.500000
vt 0.125000 0.500000
vt 0.875000 0.500000
vt 1.000000 0.500000
vt 0.687500 0.500000
vt 0.375000 0.500000
vt 1.000000 1.000000
vt 0.937500 0.500000
vt 1.000000 0.500000
vt 0.937500 1.000000
vt 0.875000 0.500000
vt 0.875000 1.000000
vt 0.812500 0.500000
vt 0.812500 1.000000
vt 0.750000 0.500000
vt 0.750000 1.000000
vt 0.687500 0.500000
vt 0.687500 1.000000
vt 0.625000 0.500000
vt 0.625000 1.000000
vt 0.562500 0.500000
vt 0.562500 1.000000
vt 0.500000 0.500000
vt 0.500000 1.000000
vt 0.437500 0.500000
vt 0.437500 1.000000
vt 0.375000 0.500000
vt 0.375000 1.000000
vt 0.312500 0.500000
vt 0.312500 1.000000
vt 0.250000 0.500000
vt 0.250000 1.000000
vt 0.187500 0.500000
vt 0.187500 1.000000
vt 0.125000 0.500000
vt 0.419706 0.419706
vt 0.080294 0.419706
vt 0.080294 0.080294
vt 0.125000 1.000000
vt 0.062500 0.500000
vt 0.062500 1.000000
vt 0.000000 0.500000
vt 0.971731 0.341844
vt 0.841844 0.028269
vt 0.528269 0.158156
vt 0.341844 0.471731
vt 0.250000 0.490000
vt 0.158156 0.471731
vt 0.028269 0.341844
vt 0.010000 0.250000
vt 0.028269 0.158156
vt 0.158156 0.028269
vt 0.250000 0.010000
vt 0.341844 0.028269
vt 0.419706 0.080294
vt 0.471731 0.158156
vt 0.490000 0.250000
vt 0.471731 0.341844
vt 0.000000 1.000000
vt 0.000000 0.500000
vt 0.750000 0.490000
vt 0.971731 0.341844
vt 0.841844 0.471731
vt 0.919706 0.419706
vt 0.990000 0.250000
vt 0.971731 0.158156
vt 0.919706 0.080294
vt 0.750000 0.010000
vt 0.658156 0.028269
vt 0.580294 0.080294
vt 0.510000 0.250000
vt 0.528269 0.341844
vt 0.580294 0.419706
vt 0.341844 0.471731
vt 0.250000 0.490000
vt 0.158156 0.471731
vt 0.028269 0.341844
vt 0.010000 0.250000
vt 0.028269 0.158156
vt 0.158156 0.028269
vt 0.250000 0.010000
vt 0.341844 0.028269
vt 0.419706 0.080294
vt 0.471731 0.158156
vt 0.490000 0.250000
vt 0.471731 0.341844
vt 0.000000 1.000000
vt 0.658156 0.471731
vt 0.750000 0.490000
vt 0.841844 0.471731
vt 0.919706 0.419706
vt 0.990000 0.250000
vt 0.971731 0.158156
vt 0.919706 0.080294
vt 0.750000 0.010000
vt 0.658156 0.028269
vt 0.580294 0.080294
vt 0.510000 0.250000
vt 0.528269 0.341844
vt 0.580294 0.419706
vt 1.000000 0.000000
vt 0.000000 1.000000
vt 0.000000 0.000000
vt 1.000000 1.000000
vt 0.000000 0.000000
vt 1.000000 1.000000
vt 0.000000 1.000000
vt 1.000000 0.000000
vt 1.000000 0.000000
vt 0.000000 1.000000
vt 0.000000 0.000000
vt 1.000000 1.000000
vn 0.1951 0.0000 -0.9808
vn 0.5556 0.0000 -0.8315
vn 0.8315 0.0000 -0.5556
vn 0.9808 0.0000 -0.1951
vn 0.9808 0.0000 0.1951
vn 0.8315 0.0000 0.5556
vn 0.5556 0.0000 0.8315
vn 0.1951 0.0000 0.9808
vn -0.1951 0.0000 0.9808
vn -0.5556 0.0000 0.8315
vn -0.8315 0.0000 0.5556
vn -0.9808 0.0000 0.1951
vn -0.9808 0.0000 -0.1951
vn -0.8315 0.0000 -0.5556
vn 0.0000 1.0000 0.0000
vn -0.5556 0.0000 -0.8315
vn -0.1951 0.0000 -0.9808
vn -0.0502 -0.9663 -0.2525
vn 0.0000 -1.0000 -0.0000
vn 0.2525 -0.9663 -0.0502
vn -0.0502 -0.9663 0.2525
vn -0.2141 -0.9663 -0.1430
vn 0.1430 -0.9663 -0.2141
vn 0.1430 -0.9663 0.2141
vn -0.2525 -0.9663 0.0502
vn 0.2525 -0.9663 0.0502
vn -0.1430 -0.9663 0.2141
vn -0.1430 -0.9663 -0.2141
vn 0.2141 -0.9663 -0.1430
vn 0.0502 -0.9663 0.2525
vn 0.0502 -0.9663 -0.2525
vn -0.2525 -0.9663 -0.0502
vn 0.2141 -0.9663 0.1430
vn -0.2141 -0.9663 0.1430
usemtl Material.001
s off
f 2/1/1 3/2/1 1/3/1
f 4/4/2 5/5/2 3/2/2
f 6/6/3 7/7/3 5/5/3
f 8/8/4 9/9/4 7/7/4
f 10/10/5 11/11/5 9/9/5
f 12/12/6 13/13/6 11/11/6
f 14/14/7 15/15/7 13/13/7
f 16/16/8 17/17/8 15/15/8
f 18/18/9 19/19/9 17/17/9
f 20/20/10 21/21/10 19/19/10
f 22/22/11 23/23/11 21/21/11
f 24/24/12 25/25/12 23/23/12
f 26/26/13 27/27/13 25/25/13
f 28/28/14 29/29/14 27/27/14
f 6/30/15 30/31/15 22/32/15
f 30/33/16 31/34/16 29/29/16
f 32/35/17 1/36/17 31/34/17
f 1/36/18 48/37/18 31/34/18
f 40/38/19 44/39/19 48/40/19
f 7/7/20 37/41/20 36/42/20
f 19/19/21 41/43/21 17/17/21
f 29/29/22 46/44/22 27/27/22
f 5/5/23 34/45/23 3/2/23
f 13/13/24 40/46/24 39/47/24
f 23/23/25 45/48/25 44/49/25
f 11/11/26 37/41/26 9/9/26
f 21/21/27 42/50/27 19/19/27
f 31/34/28 47/51/28 29/29/28
f 7/7/29 35/52/29 5/5/29
f 17/17/30 40/46/30 15/15/30
f 3/2/31 33/53/31 1/3/31
f 27/27/32 45/48/32 25/25/32
f 13/13/33 38/54/33 11/11/33
f 21/21/34 44/49/34 43/55/34
f 50/56/1 51/57/1 49/58/1
f 52/59/2 53/60/2 51/57/2
f 54/61/3 55/62/3 53/60/3
f 56/63/4 57/64/4 55/62/4
f 58/65/5 59/66/5 57/64/5
f 60/67/6 61/68/6 59/66/6
f 62/69/7 63/70/7 61/68/7
f 64/71/8 65/72/8 63/70/8
f 66/73/9 67/74/9 65/72/9
f 68/75/10 69/76/10 67/74/10
f 70/77/11 71/78/11 69/76/11
f 72/79/12 73/80/12 71/78/12
f 74/81/13 75/82/13 73/80/13
f 76/83/14 77/84/14 75/82/14
f 54/85/15 78/86/15 70/87/15
f 78/88/16 79/89/16 77/84/16
f 80/90/17 49/91/17 79/89/17
f 55/92/19 63/93/19 71/94/19
f 2/1/1 4/4/1 3/2/1
f 4/4/2 6/6/2 5/5/2
f 6/6/3 8/8/3 7/7/3
f 8/8/4 10/10/4 9/9/4
f 10/10/5 12/12/5 11/11/5
f 12/12/6 14/14/6 13/13/6
f 14/14/7 16/16/7 15/15/7
f 16/16/8 18/18/8 17/17/8
f 18/18/9 20/20/9 19/19/9
f 20/20/10 22/22/10 21/21/10
f 22/22/11 24/24/11 23/23/11
f 24/24/12 26/26/12 25/25/12
f 26/26/13 28/28/13 27/27/13
f 28/28/14 30/33/14 29/29/14
f 6/30/15 4/95/15 2/96/15
f 2/96/15 32/97/15 30/31/15
f 30/31/15 28/98/15 22/32/15
f 28/98/15 26/99/15 22/32/15
f 26/99/15 24/100/15 22/32/15
f 22/32/15 20/101/15 18/102/15
f 18/102/15 16/103/15 14/104/15
f 14/104/15 12/105/15 10/106/15
f 10/106/15 8/107/15 14/104/15
f 8/107/15 6/30/15 14/104/15
f 6/30/15 2/96/15 30/31/15
f 22/32/15 18/102/15 6/30/15
f 18/102/15 14/104/15 6/30/15
f 30/33/16 32/35/16 31/34/16
f 32/35/17 2/108/17 1/36/17
f 1/36/18 33/109/18 48/37/18
f 48/40/19 33/110/19 36/111/19
f 33/110/19 34/112/19 36/111/19
f 34/112/19 35/113/19 36/111/19
f 36/111/19 37/114/19 38/115/19
f 38/115/19 39/116/19 36/111/19
f 39/116/19 40/38/19 36/111/19
f 40/38/19 41/117/19 42/118/19
f 42/118/19 43/119/19 40/38/19
f 43/119/19 44/39/19 40/38/19
f 44/39/19 45/120/19 46/121/19
f 46/121/19 47/122/19 48/40/19
f 44/39/19 46/121/19 48/40/19
f 48/40/19 36/111/19 40/38/19
f 7/7/20 9/9/20 37/41/20
f 19/19/21 42/50/21 41/43/21
f 29/29/22 47/51/22 46/44/22
f 5/5/23 35/52/23 34/45/23
f 13/13/24 15/15/24 40/46/24
f 23/23/25 25/25/25 45/48/25
f 11/11/26 38/54/26 37/41/26
f 21/21/27 43/55/27 42/50/27
f 31/34/28 48/37/28 47/51/28
f 7/7/29 36/42/29 35/52/29
f 17/17/30 41/43/30 40/46/30
f 3/2/31 34/45/31 33/53/31
f 27/27/32 46/44/32 45/48/32
f 13/13/33 39/47/33 38/54/33
f 21/21/34 23/23/34 44/49/34
f 50/56/1 52/59/1 51/57/1
f 52/59/2 54/61/2 53/60/2
f 54/61/3 56/63/3 55/62/3
f 56/63/4 58/65/4 57/64/4
f 58/65/5 60/67/5 59/66/5
f 60/67/6 62/69/6 61/68/6
f 62/69/7 64/71/7 63/70/7
f 64/71/8 66/73/8 65/72/8
f 66/73/9 68/75/9 67/74/9
f 68/75/10 70/77/10 69/76/10
f 70/77/11 72/79/11 71/78/11
f 72/79/12 74/81/12 73/80/12
f 74/81/13 76/83/13 75/82/13
f 76/83/14 78/88/14 77/84/14
f 54/85/15 52/123/15 50/124/15
f 50/124/15 80/125/15 78/86/15
f 78/86/15 76/126/15 70/87/15
f 76/126/15 74/127/15 70/87/15
f 74/127/15 72/128/15 70/87/15
f 70/87/15 68/129/15 66/130/15
f 66/130/15 64/131/15 62/132/15
f 62/132/15 60/133/15 58/134/15
f 58/134/15 56/135/15 62/132/15
f 56/135/15 54/85/15 62/132/15
f 54/85/15 50/124/15 78/86/15
f 70/87/15 66/130/15 54/85/15
f 66/130/15 62/132/15 54/85/15
f 78/88/16 80/90/16 79/89/16
f 80/90/17 50/136/17 49/91/17
f 79/137/19 49/138/19 55/92/19
f 49/138/19 51/139/19 55/92/19
f 51/139/19 53/140/19 55/92/19
f 55/92/19 57/141/19 59/142/19
f 59/142/19 61/143/19 63/93/19
f 63/93/19 65/144/19 67/145/19
f 67/145/19 69/146/19 71/94/19
f 71/94/19 73/147/19 75/148/19
f 75/148/19 77/149/19 71/94/19
f 77/149/19 79/137/19 71/94/19
f 55/92/19 59/142/19 63/93/19
f 63/93/19 67/145/19 71/94/19
f 79/137/19 55/92/19 71/94/19
usemtl Material.005
s 1
f 81/150/15 82/151/15 83/152/15
f 81/150/15 84/153/15 82/151/15
usemtl Material.007
f 85/154/15 86/155/15 87/156/15
f 85/154/15 88/157/15 86/155/15
usemtl Material.008
f 89/158/15 90/159/15 91/160/15
f 89/158/15 92/161/15 90/159/15
