# Blender 3.6.5
# www.blender.org
mtllib ngantulanh2.mtl
g Cabinet1.004_Mesh
v -0.067284 5.053898 0.077544
v -2.204988 5.053898 0.077162
v -2.204988 4.978708 0.077162
v -0.067284 4.978708 0.077544
v -0.067719 5.053898 2.507644
v -2.205423 5.053898 2.507261
v -2.205423 4.978708 2.507261
v -0.067719 4.978708 2.507644
v -0.068865 5.053897 0.077561
v -2.206569 5.053897 0.077179
v -2.206569 4.978707 0.077179
v -0.068865 4.978707 0.077561
v -0.069300 5.053897 2.507661
v -2.207004 5.053897 2.507278
v -2.207004 4.978707 2.507278
v -0.069300 4.978707 2.507661
vn 0.0002 -0.0000 -1.0000
vn -0.0002 -0.0000 1.0000
vn 1.0000 -0.0000 0.0002
vn -0.0000 1.0000 -0.0000
vn -0.0000 -1.0000 -0.0000
vn -1.0000 -0.0000 -0.0002
s 0
usemtl Cabinet
f 4//1 2//1 1//1
f 6//2 8//2 5//2
f 5//3 4//3 1//3
f 10//4 13//4 9//4
f 16//5 11//5 12//5
f 11//6 14//6 10//6
f 4//1 3//1 2//1
f 6//2 7//2 8//2
f 5//3 8//3 4//3
f 10//4 14//4 13//4
f 16//5 15//5 11//5
f 11//6 15//6 14//6
