# Blender 3.6.5
# www.blender.org
mtllib khungfridge.mtl
g Cabinet1_Mesh
v 0.000000 0.415362 0.000000
v -2.204974 0.415362 -0.000395
v -2.204974 3.592229 -0.000395
v 0.000000 3.592229 0.000000
v -0.000463 0.415362 2.585212
v -2.205437 0.415362 2.584818
v -2.205437 3.592229 2.584818
v -0.000462 3.592229 2.585212
v -0.067284 0.490548 0.077544
v -2.204988 0.490548 0.077162
v -2.204988 3.517043 0.077162
v -0.067284 3.517042 0.077544
v -0.067719 0.490548 2.507644
v -2.205423 0.490548 2.507261
v -2.205423 3.517043 2.507261
v -0.067719 3.517042 2.507644
v 0.000000 3.591945 0.000000
v -2.204974 3.591945 -0.000395
v -2.204974 6.768807 -0.000395
v 0.000001 6.768807 0.000000
v -0.000462 3.591945 2.585212
v -2.205437 3.591945 2.584818
v -2.205436 6.768807 2.584818
v -0.000462 6.768807 2.585212
v -0.067284 3.667131 0.077544
v -2.204988 3.667131 0.077162
v -2.204988 6.693621 0.077162
v -0.067284 6.693621 0.077544
v -0.067719 3.667131 2.507644
v -2.205423 3.667131 2.507261
v -2.205422 6.693621 2.507261
v -0.067719 6.693621 2.507644
vn 0.0002 -0.0000 -1.0000
vn -0.0002 -0.0000 1.0000
vn 1.0000 -0.0000 0.0002
vn -0.0000 -1.0000 -0.0000
vn -0.0000 1.0000 -0.0000
vn -1.0000 -0.0000 -0.0002
s 0
usemtl Cabinet
f 2//1 4//1 1//1
f 8//2 6//2 5//2
f 4//3 5//3 1//3
f 5//4 2//4 1//4
f 3//5 8//5 4//5
f 12//2 10//2 9//2
f 14//1 16//1 13//1
f 13//6 12//6 9//6
f 10//5 13//5 9//5
f 16//4 11//4 12//4
f 10//6 3//6 2//6
f 3//6 15//6 7//6
f 15//6 6//6 7//6
f 14//6 2//6 6//6
f 18//1 20//1 17//1
f 24//2 22//2 21//2
f 20//3 21//3 17//3
f 21//4 18//4 17//4
f 19//5 24//5 20//5
f 28//2 26//2 25//2
f 30//1 32//1 29//1
f 29//6 28//6 25//6
f 26//5 29//5 25//5
f 32//4 27//4 28//4
f 26//6 19//6 18//6
f 19//6 31//6 23//6
f 31//6 22//6 23//6
f 30//6 18//6 22//6
f 2//1 3//1 4//1
f 8//2 7//2 6//2
f 4//3 8//3 5//3
f 5//4 6//4 2//4
f 3//5 7//5 8//5
f 12//2 11//2 10//2
f 14//1 15//1 16//1
f 13//6 16//6 12//6
f 10//5 14//5 13//5
f 16//4 15//4 11//4
f 10//6 11//6 3//6
f 3//6 11//6 15//6
f 15//6 14//6 6//6
f 14//6 10//6 2//6
f 18//1 19//1 20//1
f 24//2 23//2 22//2
f 20//3 24//3 21//3
f 21//4 22//4 18//4
f 19//5 23//5 24//5
f 28//2 27//2 26//2
f 30//1 31//1 32//1
f 29//6 32//6 28//6
f 26//5 30//5 29//5
f 32//4 31//4 27//4
f 26//6 27//6 19//6
f 19//6 27//6 31//6
f 31//6 30//6 22//6
f 30//6 26//6 18//6
