# Blender v3.1.2 OBJ File: 'xeTai.blend'
# www.blender.org
mtllib matTroi.mtl
o Sphere
v 0.000000 0.475528 0.154509
v 0.000000 0.154508 0.475528
v 0.000000 -0.000000 0.500000
v 0.000000 -0.154509 0.475528
v 0.000000 -0.404509 0.293893
v 0.000000 -0.475528 0.154509
v -0.059128 0.475528 0.142747
v -0.112468 0.404509 0.271521
v -0.154799 0.293893 0.373717
v -0.181977 0.154508 0.439331
v -0.191342 -0.000000 0.461940
v -0.181977 -0.154509 0.439331
v -0.154799 -0.293893 0.373717
v -0.112468 -0.404509 0.271521
v -0.059128 -0.475528 0.142747
v 0.000000 -0.500000 -0.000000
v -0.109254 0.475528 0.109254
v -0.207814 0.404509 0.207813
v -0.286031 0.293893 0.286031
v -0.336249 0.154508 0.336249
v -0.353553 -0.000000 0.353553
v -0.336249 -0.154509 0.336249
v -0.286031 -0.293893 0.286031
v -0.207813 -0.404509 0.207813
v -0.109254 -0.475528 0.109254
v -0.142747 0.475528 0.059128
v -0.271521 0.404509 0.112468
v -0.373717 0.293893 0.154799
v -0.439331 0.154508 0.181977
v -0.461940 -0.000000 0.191342
v -0.439331 -0.154509 0.181977
v -0.373717 -0.293893 0.154799
v -0.271521 -0.404509 0.112468
v -0.142747 -0.475528 0.059128
v -0.154509 0.475528 -0.000000
v -0.293893 0.404509 -0.000000
v -0.404509 0.293893 -0.000000
v -0.475528 0.154508 -0.000000
v -0.500000 -0.000000 -0.000000
v -0.475528 -0.154509 -0.000000
v -0.404509 -0.293893 -0.000000
v -0.293893 -0.404509 -0.000000
v -0.154509 -0.475528 -0.000000
v -0.142747 0.475528 -0.059128
v -0.271521 0.404509 -0.112468
v -0.373717 0.293893 -0.154799
v -0.439331 0.154508 -0.181977
v -0.461940 -0.000000 -0.191342
v -0.439331 -0.154509 -0.181977
v -0.373717 -0.293893 -0.154799
v -0.271521 -0.404509 -0.112468
v -0.142747 -0.475528 -0.059128
v -0.109254 0.475528 -0.109254
v -0.207813 0.404509 -0.207814
v -0.286031 0.293893 -0.286031
v -0.336249 0.154508 -0.336249
v -0.353553 -0.000000 -0.353554
v -0.336249 -0.154509 -0.336249
v -0.286031 -0.293893 -0.286031
v -0.207813 -0.404509 -0.207814
v -0.109254 -0.475528 -0.109254
v -0.059128 0.475528 -0.142747
v -0.112468 0.404509 -0.271521
v -0.154799 0.293893 -0.373717
v -0.181977 0.154508 -0.439331
v -0.191342 -0.000000 -0.461940
v -0.181977 -0.154509 -0.439331
v -0.154799 -0.293893 -0.373717
v -0.112468 -0.404509 -0.271521
v -0.059128 -0.475528 -0.142747
v 0.000000 0.475528 -0.154509
v 0.000000 0.404509 -0.293893
v 0.000000 0.293893 -0.404509
v 0.000000 0.154508 -0.475528
v 0.000000 -0.000000 -0.500000
v 0.000000 -0.154509 -0.475528
v 0.000000 -0.293893 -0.404509
v 0.000000 -0.404509 -0.293893
v 0.000000 -0.475528 -0.154509
v 0.059128 0.475528 -0.142747
v 0.112468 0.404509 -0.271521
v 0.154799 0.293893 -0.373717
v 0.181977 0.154508 -0.439331
v 0.191342 -0.000000 -0.461940
v 0.181977 -0.154509 -0.439331
v 0.154799 -0.293893 -0.373717
v 0.112468 -0.404509 -0.271521
v 0.059128 -0.475528 -0.142747
v 0.109254 0.475528 -0.109254
v 0.207814 0.404509 -0.207813
v 0.286031 0.293893 -0.286031
v 0.336249 0.154508 -0.336249
v 0.353554 -0.000000 -0.353553
v 0.336249 -0.154509 -0.336249
v 0.286031 -0.293893 -0.286031
v 0.207814 -0.404509 -0.207813
v 0.109254 -0.475528 -0.109254
v 0.000000 0.500000 -0.000000
v 0.142747 0.475528 -0.059128
v 0.271521 0.404509 -0.112468
v 0.373717 0.293893 -0.154799
v 0.439331 0.154508 -0.181977
v 0.461940 -0.000000 -0.191342
v 0.439331 -0.154509 -0.181977
v 0.373717 -0.293893 -0.154799
v 0.271521 -0.404509 -0.112468
v 0.142747 -0.475528 -0.059128
v 0.154509 0.475528 0.000000
v 0.293893 0.404509 0.000000
v 0.404508 0.293893 0.000000
v 0.475528 0.154508 0.000000
v 0.500000 -0.000000 0.000000
v 0.475528 -0.154509 0.000000
v 0.404508 -0.293893 0.000000
v 0.293893 -0.404509 0.000000
v 0.154509 -0.475528 0.000000
v 0.142747 0.475528 0.059128
v 0.271521 0.404509 0.112468
v 0.373717 0.293893 0.154799
v 0.439331 0.154508 0.181977
v 0.461940 -0.000000 0.191342
v 0.439331 -0.154509 0.181977
v 0.373717 -0.293893 0.154799
v 0.271521 -0.404509 0.112468
v 0.142747 -0.475528 0.059128
v 0.109254 0.475528 0.109254
v 0.207813 0.404509 0.207813
v 0.286031 0.293893 0.286031
v 0.336249 0.154508 0.336249
v 0.353553 -0.000000 0.353554
v 0.336249 -0.154509 0.336249
v 0.286031 -0.293893 0.286031
v 0.207813 -0.404509 0.207813
v 0.109254 -0.475528 0.109254
v 0.059128 0.475528 0.142747
v 0.112468 0.404509 0.271521
v 0.154798 0.293893 0.373717
v 0.181977 0.154508 0.439331
v 0.191341 -0.000000 0.461940
v 0.181977 -0.154509 0.439331
v 0.154798 -0.293893 0.373717
v 0.112468 -0.404509 0.271521
v 0.059128 -0.475528 0.142747
v -0.000000 0.404509 0.293893
v -0.000000 0.293893 0.404508
v -0.000000 -0.293893 0.404508
vt 0.750000 0.300000
vt 0.687500 0.400000
vt 0.750000 0.400000
vt 0.687500 0.600000
vt 0.750000 0.700000
vt 0.750000 0.600000
vt 0.750000 0.900000
vt 0.687500 0.900000
vt 0.718750 1.000000
vt 0.687500 0.200000
vt 0.750000 0.200000
vt 0.687500 0.500000
vt 0.750000 0.500000
vt 0.750000 0.800000
vt 0.750000 0.100000
vt 0.687500 0.800000
vt 0.718750 0.000000
vt 0.687500 0.100000
vt 0.625000 0.700000
vt 0.687500 0.700000
vt 0.625000 0.900000
vt 0.656250 1.000000
vt 0.625000 0.200000
vt 0.687500 0.300000
vt 0.625000 0.500000
vt 0.625000 0.100000
vt 0.625000 0.400000
vt 0.625000 0.800000
vt 0.656250 0.000000
vt 0.625000 0.300000
vt 0.593750 0.000000
vt 0.562500 0.100000
vt 0.562500 0.300000
vt 0.562500 0.600000
vt 0.625000 0.600000
vt 0.562500 0.900000
vt 0.593750 1.000000
vt 0.562500 0.200000
vt 0.562500 0.500000
vt 0.562500 0.800000
vt 0.562500 0.400000
vt 0.500000 0.500000
vt 0.562500 0.700000
vt 0.500000 0.800000
vt 0.531250 0.000000
vt 0.500000 0.100000
vt 0.500000 0.300000
vt 0.500000 0.700000
vt 0.500000 0.900000
vt 0.531250 1.000000
vt 0.437500 0.800000
vt 0.437500 0.100000
vt 0.500000 0.200000
vt 0.437500 0.400000
vt 0.500000 0.400000
vt 0.437500 0.700000
vt 0.468750 0.000000
vt 0.437500 0.300000
vt 0.437500 0.600000
vt 0.500000 0.600000
vt 0.437500 0.900000
vt 0.468750 1.000000
vt 0.437500 0.500000
vt 0.375000 0.500000
vt 0.375000 0.800000
vt 0.375000 0.200000
vt 0.437500 0.200000
vt 0.375000 0.400000
vt 0.375000 0.700000
vt 0.406250 0.000000
vt 0.375000 0.100000
vt 0.375000 0.900000
vt 0.406250 1.000000
vt 0.312500 0.900000
vt 0.343750 1.000000
vt 0.312500 0.200000
vt 0.375000 0.300000
vt 0.312500 0.500000
vt 0.375000 0.600000
vt 0.312500 0.800000
vt 0.312500 0.100000
vt 0.312500 0.400000
vt 0.312500 0.700000
vt 0.343750 0.000000
vt 0.312500 0.300000
vt 0.312500 0.600000
vt 0.250000 0.300000
vt 0.250000 0.600000
vt 0.250000 0.900000
vt 0.281250 1.000000
vt 0.250000 0.200000
vt 0.250000 0.500000
vt 0.250000 0.100000
vt 0.250000 0.400000
vt 0.250000 0.700000
vt 0.281250 0.000000
vt 0.187500 0.700000
vt 0.250000 0.800000
vt 0.218750 0.000000
vt 0.187500 0.100000
vt 0.187500 0.400000
vt 0.187500 0.600000
vt 0.187500 0.900000
vt 0.218750 1.000000
vt 0.187500 0.200000
vt 0.187500 0.500000
vt 0.187500 0.800000
vt 0.125000 0.400000
vt 0.125000 0.700000
vt 0.156250 0.000000
vt 0.125000 0.100000
vt 0.125000 0.300000
vt 0.187500 0.300000
vt 0.125000 0.600000
vt 0.125000 0.900000
vt 0.156250 1.000000
vt 0.125000 0.200000
vt 0.062500 0.800000
vt 0.125000 0.800000
vt 0.062500 0.100000
vt 0.062500 0.400000
vt 0.125000 0.500000
vt 0.062500 0.700000
vt 0.093750 0.000000
vt 0.062500 0.300000
vt 0.062500 0.600000
vt 0.062500 0.900000
vt 0.093750 1.000000
vt 0.062500 0.500000
vt 0.062500 0.200000
vt 0.000000 0.300000
vt 0.000000 0.500000
vt 0.000000 0.800000
vt 0.000000 0.100000
vt 0.000000 0.400000
vt 0.000000 0.700000
vt 0.031250 0.000000
vt 0.000000 0.600000
vt 0.000000 0.900000
vt 0.031250 1.000000
vt 0.937500 0.600000
vt 1.000000 0.700000
vt 1.000000 0.600000
vt 1.000000 0.900000
vt 0.937500 0.900000
vt 0.968750 1.000000
vt 1.000000 0.200000
vt 0.937500 0.300000
vt 1.000000 0.300000
vt 1.000000 0.500000
vt 0.937500 0.800000
vt 1.000000 0.800000
vt 1.000000 0.100000
vt 0.937500 0.200000
vt 0.937500 0.400000
vt 1.000000 0.400000
vt 0.937500 0.700000
vt 0.968750 0.000000
vt 0.937500 0.100000
vt 0.875000 0.400000
vt 0.875000 0.600000
vt 0.875000 0.900000
vt 0.906250 1.000000
vt 0.875000 0.200000
vt 0.937500 0.500000
vt 0.875000 0.100000
vt 0.875000 0.700000
vt 0.906250 0.000000
vt 0.812500 0.700000
vt 0.875000 0.800000
vt 0.843750 0.000000
vt 0.812500 0.100000
vt 0.812500 0.300000
vt 0.875000 0.300000
vt 0.812500 0.600000
vt 0.812500 0.900000
vt 0.843750 1.000000
vt 0.875000 0.500000
vt 0.812500 0.400000
vt 0.812500 0.200000
vt 0.812500 0.500000
vt 0.812500 0.800000
vt 0.781250 0.000000
vt 0.781250 1.000000
vt 0.000000 0.200000
vn 0.1745 0.4470 -0.8773
vn 0.1745 -0.4470 -0.8773
vn 0.0311 -0.9872 -0.1564
vn 0.1393 0.7002 -0.7002
vn 0.1928 -0.1535 -0.9692
vn 0.0899 -0.8874 -0.4522
vn 0.0899 0.8874 -0.4522
vn 0.1928 0.1535 -0.9692
vn 0.1393 -0.7002 -0.7002
vn 0.0311 0.9872 -0.1564
vn 0.4970 -0.4470 -0.7438
vn 0.0886 -0.9872 -0.1326
vn 0.3966 0.7002 -0.5936
vn 0.5490 -0.1535 -0.8216
vn 0.2561 -0.8874 -0.3833
vn 0.2561 0.8874 -0.3833
vn 0.5490 0.1535 -0.8216
vn 0.3966 -0.7002 -0.5936
vn 0.0886 0.9872 -0.1326
vn 0.4970 0.4470 -0.7438
vn 0.1326 0.9872 -0.0886
vn 0.7438 0.4470 -0.4970
vn 0.7438 -0.4470 -0.4970
vn 0.1326 -0.9872 -0.0886
vn 0.5936 0.7002 -0.3966
vn 0.8216 -0.1535 -0.5490
vn 0.3833 -0.8874 -0.2561
vn 0.3833 0.8874 -0.2561
vn 0.8216 0.1535 -0.5490
vn 0.5936 -0.7002 -0.3966
vn 0.9692 0.1535 -0.1928
vn 0.7002 -0.7002 -0.1393
vn 0.1564 0.9872 -0.0311
vn 0.8773 0.4470 -0.1745
vn 0.8773 -0.4470 -0.1745
vn 0.1564 -0.9872 -0.0311
vn 0.7002 0.7002 -0.1393
vn 0.9692 -0.1535 -0.1928
vn 0.4522 -0.8874 -0.0899
vn 0.4522 0.8874 -0.0899
vn 0.4522 -0.8874 0.0899
vn 0.4522 0.8874 0.0899
vn 0.9692 0.1535 0.1928
vn 0.7002 -0.7002 0.1393
vn 0.1564 0.9872 0.0311
vn 0.8773 0.4470 0.1745
vn 0.8773 -0.4470 0.1745
vn 0.1564 -0.9872 0.0311
vn 0.7002 0.7002 0.1393
vn 0.9692 -0.1535 0.1928
vn 0.8216 -0.1535 0.5490
vn 0.3833 -0.8874 0.2561
vn 0.3833 0.8874 0.2561
vn 0.8216 0.1535 0.5490
vn 0.5936 -0.7002 0.3966
vn 0.1326 0.9872 0.0886
vn 0.7438 0.4470 0.4970
vn 0.7438 -0.4470 0.4970
vn 0.1326 -0.9872 0.0886
vn 0.5936 0.7002 0.3966
vn 0.0886 -0.9872 0.1326
vn 0.3966 0.7002 0.5936
vn 0.5490 -0.1535 0.8216
vn 0.2561 -0.8874 0.3833
vn 0.2561 0.8874 0.3833
vn 0.5490 0.1535 0.8216
vn 0.3966 -0.7002 0.5936
vn 0.0886 0.9872 0.1326
vn 0.4970 0.4470 0.7438
vn 0.4970 -0.4470 0.7438
vn 0.1745 0.4470 0.8773
vn 0.1745 -0.4470 0.8773
vn 0.0311 -0.9872 0.1564
vn 0.1393 0.7002 0.7002
vn 0.1928 -0.1535 0.9692
vn 0.0899 -0.8874 0.4522
vn 0.0899 0.8874 0.4522
vn 0.1928 0.1535 0.9692
vn 0.1393 -0.7002 0.7002
vn 0.0311 0.9872 0.1564
vn -0.1393 -0.7002 0.7002
vn -0.0311 0.9872 0.1564
vn -0.1745 0.4470 0.8773
vn -0.1745 -0.4470 0.8773
vn -0.0311 -0.9872 0.1564
vn -0.1393 0.7002 0.7002
vn -0.1928 -0.1535 0.9692
vn -0.0899 -0.8874 0.4522
vn -0.0899 0.8874 0.4522
vn -0.1928 0.1535 0.9692
vn -0.5490 0.1535 0.8216
vn -0.3966 -0.7002 0.5936
vn -0.0886 0.9872 0.1326
vn -0.4970 0.4470 0.7438
vn -0.4970 -0.4470 0.7438
vn -0.0886 -0.9872 0.1326
vn -0.3966 0.7002 0.5936
vn -0.5490 -0.1535 0.8216
vn -0.2561 -0.8874 0.3833
vn -0.2561 0.8874 0.3833
vn -0.3833 -0.8874 0.2561
vn -0.3833 0.8874 0.2561
vn -0.8216 0.1535 0.5490
vn -0.5936 -0.7002 0.3966
vn -0.1326 0.9872 0.0886
vn -0.7438 0.4470 0.4970
vn -0.7438 -0.4470 0.4970
vn -0.1326 -0.9872 0.0886
vn -0.5936 0.7002 0.3966
vn -0.8216 -0.1535 0.5490
vn -0.7002 0.7002 0.1393
vn -0.9692 -0.1535 0.1928
vn -0.4522 -0.8874 0.0899
vn -0.4522 0.8874 0.0899
vn -0.9692 0.1535 0.1928
vn -0.7002 -0.7002 0.1393
vn -0.1564 0.9872 0.0311
vn -0.8773 0.4470 0.1745
vn -0.8773 -0.4470 0.1745
vn -0.1564 -0.9872 0.0311
vn -0.8773 -0.4470 -0.1745
vn -0.1564 -0.9872 -0.0311
vn -0.7002 0.7002 -0.1393
vn -0.9692 -0.1535 -0.1928
vn -0.4522 -0.8874 -0.0899
vn -0.4522 0.8874 -0.0899
vn -0.9692 0.1535 -0.1928
vn -0.7002 -0.7002 -0.1393
vn -0.1564 0.9872 -0.0311
vn -0.8773 0.4470 -0.1745
vn -0.7438 0.4470 -0.4970
vn -0.7438 -0.4470 -0.4970
vn -0.1326 -0.9872 -0.0886
vn -0.5936 0.7002 -0.3966
vn -0.8216 -0.1535 -0.5490
vn -0.3833 -0.8874 -0.2561
vn -0.3833 0.8874 -0.2561
vn -0.8216 0.1535 -0.5490
vn -0.5936 -0.7002 -0.3966
vn -0.1326 0.9872 -0.0886
vn -0.3966 -0.7002 -0.5936
vn -0.0886 0.9872 -0.1326
vn -0.4970 0.4470 -0.7438
vn -0.4970 -0.4470 -0.7438
vn -0.0886 -0.9872 -0.1326
vn -0.3966 0.7002 -0.5936
vn -0.5490 -0.1535 -0.8216
vn -0.2561 -0.8874 -0.3833
vn -0.2561 0.8874 -0.3833
vn -0.5490 0.1535 -0.8216
vn -0.0899 0.8874 -0.4522
vn -0.1928 0.1535 -0.9692
vn -0.1393 -0.7002 -0.7002
vn -0.0311 0.9872 -0.1564
vn -0.1745 0.4470 -0.8773
vn -0.1745 -0.4470 -0.8773
vn -0.0311 -0.9872 -0.1564
vn -0.1393 0.7002 -0.7002
vn -0.1928 -0.1535 -0.9692
vn -0.0899 -0.8874 -0.4522
usemtl LightMaterial
s off
f 146/1/1 12/2/1 4/3/1
f 10/4/2 145/5/2 2/6/2
f 1/7/3 7/8/3 98/9/3
f 14/10/4 146/1/4 5/11/4
f 11/12/5 2/6/5 3/13/5
f 144/14/6 7/8/6 1/7/6
f 6/15/7 14/10/7 5/11/7
f 12/2/8 3/13/8 4/3/8
f 145/5/9 8/16/9 144/14/9
f 16/17/10 15/18/10 6/15/10
f 10/4/11 19/19/11 9/20/11
f 7/8/12 17/21/12 98/22/12
f 24/23/13 13/24/13 14/10/13
f 21/25/14 10/4/14 11/12/14
f 8/16/15 17/21/15 7/8/15
f 25/26/16 14/10/16 15/18/16
f 22/27/17 11/12/17 12/2/17
f 9/20/18 18/28/18 8/16/18
f 16/29/19 25/26/19 15/18/19
f 23/30/20 12/2/20 13/24/20
f 16/31/21 34/32/21 25/26/21
f 32/33/22 22/27/22 23/30/22
f 29/34/23 19/19/23 20/35/23
f 17/21/24 26/36/24 98/37/24
f 33/38/25 23/30/25 24/23/25
f 30/39/26 20/35/26 21/25/26
f 27/40/27 17/21/27 18/28/27
f 34/32/28 24/23/28 25/26/28
f 31/41/29 21/25/29 22/27/29
f 19/19/30 27/40/30 18/28/30
f 31/41/31 39/42/31 30/39/31
f 28/43/32 36/44/32 27/40/32
f 16/45/33 43/46/33 34/32/33
f 41/47/34 31/41/34 32/33/34
f 29/34/35 37/48/35 28/43/35
f 26/36/36 35/49/36 98/50/36
f 33/38/37 41/47/37 32/33/37
f 39/42/38 29/34/38 30/39/38
f 36/44/39 26/36/39 27/40/39
f 43/46/40 33/38/40 34/32/40
f 45/51/41 35/49/41 36/44/41
f 52/52/42 42/53/42 43/46/42
f 49/54/43 39/42/43 40/55/43
f 46/56/44 36/44/44 37/48/44
f 16/57/45 52/52/45 43/46/45
f 50/58/46 40/55/46 41/47/46
f 47/59/47 37/48/47 38/60/47
f 35/49/48 44/61/48 98/62/48
f 42/53/49 50/58/49 41/47/49
f 48/63/50 38/60/50 39/42/50
f 57/64/51 47/59/51 48/63/51
f 54/65/52 44/61/52 45/51/52
f 52/52/53 60/66/53 51/67/53
f 58/68/54 48/63/54 49/54/54
f 55/69/55 45/51/55 46/56/55
f 16/70/56 61/71/56 52/52/56
f 50/58/57 58/68/57 49/54/57
f 47/59/58 55/69/58 46/56/58
f 44/61/59 53/72/59 98/73/59
f 60/66/60 50/58/60 51/67/60
f 53/72/61 62/74/61 98/75/61
f 69/76/62 59/77/62 60/66/62
f 66/78/63 56/79/63 57/64/63
f 63/80/64 53/72/64 54/65/64
f 70/81/65 60/66/65 61/71/65
f 67/82/66 57/64/66 58/68/66
f 64/83/67 54/65/67 55/69/67
f 16/84/68 70/81/68 61/71/68
f 68/85/69 58/68/69 59/77/69
f 65/86/70 55/69/70 56/79/70
f 77/87/71 67/82/71 68/85/71
f 74/88/72 64/83/72 65/86/72
f 62/74/73 71/89/73 98/90/73
f 78/91/74 68/85/74 69/76/74
f 75/92/75 65/86/75 66/78/75
f 63/80/76 71/89/76 62/74/76
f 79/93/77 69/76/77 70/81/77
f 76/94/78 66/78/78 67/82/78
f 73/95/79 63/80/79 64/83/79
f 16/96/80 79/93/80 70/81/80
f 82/97/81 72/98/81 73/95/81
f 16/99/82 88/100/82 79/93/82
f 77/87/83 85/101/83 76/94/83
f 83/102/84 73/95/84 74/88/84
f 71/89/85 80/103/85 98/104/85
f 87/105/86 77/87/86 78/91/86
f 84/106/87 74/88/87 75/92/87
f 81/107/88 71/89/88 72/98/88
f 88/100/89 78/91/89 79/93/89
f 85/101/90 75/92/90 76/94/90
f 94/108/91 84/106/91 85/101/91
f 91/109/92 81/107/92 82/97/92
f 16/110/93 97/111/93 88/100/93
f 95/112/94 85/101/94 86/113/94
f 92/114/95 82/97/95 83/102/95
f 80/103/96 89/115/96 98/116/96
f 96/117/97 86/113/97 87/105/97
f 84/106/98 92/114/98 83/102/98
f 81/107/99 89/115/99 80/103/99
f 88/100/100 96/117/100 87/105/100
f 100/118/101 89/115/101 90/119/101
f 107/120/102 96/117/102 97/111/102
f 104/121/103 93/122/103 94/108/103
f 101/123/104 90/119/104 91/109/104
f 16/124/105 107/120/105 97/111/105
f 105/125/106 94/108/106 95/112/106
f 102/126/107 91/109/107 92/114/107
f 89/115/108 99/127/108 98/128/108
f 96/117/109 105/125/109 95/112/109
f 103/129/110 92/114/110 93/122/110
f 106/130/111 114/131/111 105/125/111
f 112/132/112 102/126/112 103/129/112
f 109/133/113 99/127/113 100/118/113
f 116/134/114 106/130/114 107/120/114
f 113/135/115 103/129/115 104/121/115
f 110/136/116 100/118/116 101/123/116
f 16/137/117 116/134/117 107/120/117
f 114/131/118 104/121/118 105/125/118
f 111/138/119 101/123/119 102/126/119
f 99/127/120 108/139/120 98/140/120
f 120/141/121 110/142/121 111/143/121
f 108/144/122 117/145/122 98/146/122
f 115/147/123 123/148/123 114/149/123
f 112/150/124 120/141/124 111/143/124
f 118/151/125 108/144/125 109/152/125
f 116/153/126 124/154/126 115/147/126
f 122/155/127 112/150/127 113/156/127
f 119/157/128 109/152/128 110/142/128
f 16/158/129 125/159/129 116/153/129
f 114/149/130 122/155/130 113/156/130
f 123/148/131 131/160/131 122/155/131
f 129/161/132 119/157/132 120/141/132
f 117/145/133 126/162/133 98/163/133
f 133/164/134 123/148/134 124/154/134
f 121/165/135 129/161/135 120/141/135
f 118/151/136 126/162/136 117/145/136
f 134/166/137 124/154/137 125/159/137
f 131/160/138 121/165/138 122/155/138
f 128/167/139 118/151/139 119/157/139
f 16/168/140 134/166/140 125/159/140
f 137/169/141 127/170/141 128/167/141
f 16/171/142 143/172/142 134/166/142
f 141/173/143 131/160/143 132/174/143
f 138/175/144 128/167/144 129/161/144
f 126/162/145 135/176/145 98/177/145
f 133/164/146 141/173/146 132/174/146
f 130/178/147 138/175/147 129/161/147
f 127/170/148 135/176/148 126/162/148
f 143/172/149 133/164/149 134/166/149
f 140/179/150 130/178/150 131/160/150
f 6/15/151 142/180/151 143/172/151
f 4/3/152 139/181/152 140/179/152
f 145/5/153 136/182/153 137/169/153
f 16/183/154 6/15/154 143/172/154
f 141/173/155 4/3/155 140/179/155
f 2/6/156 137/169/156 138/175/156
f 135/176/157 1/7/157 98/184/157
f 5/11/158 141/173/158 142/180/158
f 3/13/159 138/175/159 139/181/159
f 136/182/160 1/7/160 135/176/160
f 146/1/1 13/24/1 12/2/1
f 10/4/2 9/20/2 145/5/2
f 14/10/4 13/24/4 146/1/4
f 11/12/5 10/4/5 2/6/5
f 144/14/6 8/16/6 7/8/6
f 6/15/7 15/18/7 14/10/7
f 12/2/8 11/12/8 3/13/8
f 145/5/9 9/20/9 8/16/9
f 10/4/11 20/35/11 19/19/11
f 24/23/13 23/30/13 13/24/13
f 21/25/14 20/35/14 10/4/14
f 8/16/15 18/28/15 17/21/15
f 25/26/16 24/23/16 14/10/16
f 22/27/17 21/25/17 11/12/17
f 9/20/18 19/19/18 18/28/18
f 23/30/20 22/27/20 12/2/20
f 32/33/22 31/41/22 22/27/22
f 29/34/23 28/43/23 19/19/23
f 33/38/25 32/33/25 23/30/25
f 30/39/26 29/34/26 20/35/26
f 27/40/27 26/36/27 17/21/27
f 34/32/28 33/38/28 24/23/28
f 31/41/29 30/39/29 21/25/29
f 19/19/30 28/43/30 27/40/30
f 31/41/31 40/55/31 39/42/31
f 28/43/32 37/48/32 36/44/32
f 41/47/34 40/55/34 31/41/34
f 29/34/35 38/60/35 37/48/35
f 33/38/37 42/53/37 41/47/37
f 39/42/38 38/60/38 29/34/38
f 36/44/39 35/49/39 26/36/39
f 43/46/40 42/53/40 33/38/40
f 45/51/41 44/61/41 35/49/41
f 52/52/42 51/67/42 42/53/42
f 49/54/43 48/63/43 39/42/43
f 46/56/44 45/51/44 36/44/44
f 50/58/46 49/54/46 40/55/46
f 47/59/47 46/56/47 37/48/47
f 42/53/49 51/67/49 50/58/49
f 48/63/50 47/59/50 38/60/50
f 57/64/51 56/79/51 47/59/51
f 54/65/52 53/72/52 44/61/52
f 52/52/53 61/71/53 60/66/53
f 58/68/54 57/64/54 48/63/54
f 55/69/55 54/65/55 45/51/55
f 50/58/57 59/77/57 58/68/57
f 47/59/58 56/79/58 55/69/58
f 60/66/60 59/77/60 50/58/60
f 69/76/62 68/85/62 59/77/62
f 66/78/63 65/86/63 56/79/63
f 63/80/64 62/74/64 53/72/64
f 70/81/65 69/76/65 60/66/65
f 67/82/66 66/78/66 57/64/66
f 64/83/67 63/80/67 54/65/67
f 68/85/69 67/82/69 58/68/69
f 65/86/70 64/83/70 55/69/70
f 77/87/71 76/94/71 67/82/71
f 74/88/72 73/95/72 64/83/72
f 78/91/74 77/87/74 68/85/74
f 75/92/75 74/88/75 65/86/75
f 63/80/76 72/98/76 71/89/76
f 79/93/77 78/91/77 69/76/77
f 76/94/78 75/92/78 66/78/78
f 73/95/79 72/98/79 63/80/79
f 82/97/81 81/107/81 72/98/81
f 77/87/83 86/113/83 85/101/83
f 83/102/84 82/97/84 73/95/84
f 87/105/86 86/113/86 77/87/86
f 84/106/87 83/102/87 74/88/87
f 81/107/88 80/103/88 71/89/88
f 88/100/89 87/105/89 78/91/89
f 85/101/90 84/106/90 75/92/90
f 94/108/91 93/122/91 84/106/91
f 91/109/92 90/119/92 81/107/92
f 95/112/94 94/108/94 85/101/94
f 92/114/95 91/109/95 82/97/95
f 96/117/97 95/112/97 86/113/97
f 84/106/98 93/122/98 92/114/98
f 81/107/99 90/119/99 89/115/99
f 88/100/100 97/111/100 96/117/100
f 100/118/101 99/127/101 89/115/101
f 107/120/102 106/130/102 96/117/102
f 104/121/103 103/129/103 93/122/103
f 101/123/104 100/118/104 90/119/104
f 105/125/106 104/121/106 94/108/106
f 102/126/107 101/123/107 91/109/107
f 96/117/109 106/130/109 105/125/109
f 103/129/110 102/126/110 92/114/110
f 106/130/111 115/185/111 114/131/111
f 112/132/112 111/138/112 102/126/112
f 109/133/113 108/139/113 99/127/113
f 116/134/114 115/185/114 106/130/114
f 113/135/115 112/132/115 103/129/115
f 110/136/116 109/133/116 100/118/116
f 114/131/118 113/135/118 104/121/118
f 111/138/119 110/136/119 101/123/119
f 120/141/121 119/157/121 110/142/121
f 115/147/123 124/154/123 123/148/123
f 112/150/124 121/165/124 120/141/124
f 118/151/125 117/145/125 108/144/125
f 116/153/126 125/159/126 124/154/126
f 122/155/127 121/165/127 112/150/127
f 119/157/128 118/151/128 109/152/128
f 114/149/130 123/148/130 122/155/130
f 123/148/131 132/174/131 131/160/131
f 129/161/132 128/167/132 119/157/132
f 133/164/134 132/174/134 123/148/134
f 121/165/135 130/178/135 129/161/135
f 118/151/136 127/170/136 126/162/136
f 134/166/137 133/164/137 124/154/137
f 131/160/138 130/178/138 121/165/138
f 128/167/139 127/170/139 118/151/139
f 137/169/141 136/182/141 127/170/141
f 141/173/143 140/179/143 131/160/143
f 138/175/144 137/169/144 128/167/144
f 133/164/146 142/180/146 141/173/146
f 130/178/147 139/181/147 138/175/147
f 127/170/148 136/182/148 135/176/148
f 143/172/149 142/180/149 133/164/149
f 140/179/150 139/181/150 130/178/150
f 6/15/151 5/11/151 142/180/151
f 4/3/152 3/13/152 139/181/152
f 145/5/153 144/14/153 136/182/153
f 141/173/155 146/1/155 4/3/155
f 2/6/156 145/5/156 137/169/156
f 5/11/158 146/1/158 141/173/158
f 3/13/159 2/6/159 138/175/159
f 136/182/160 144/14/160 1/7/160
