# Blender v3.1.2 OBJ File: 'xeTai.blend'
# www.blender.org
mtllib xeTai_Guong.mtl
o Truck_backmirror.L.001
v -0.015157 -0.165966 -0.015199
v -0.029299 -0.145966 -0.029342
v -0.015158 -0.145966 -0.029342
v -0.015157 -0.085966 -0.015199
v -0.029299 -0.105966 -0.029342
v -0.053190 -0.085966 -0.012967
v -0.043442 -0.165992 0.013085
v -0.053203 -0.155966 -0.013030
v -0.015157 -0.085992 0.013085
v -0.015157 -0.105992 0.027228
v -0.043442 -0.085992 0.013085
v -0.057584 -0.105992 0.027227
v -0.015157 -0.145992 0.027228
v -0.015157 -0.165992 0.013085
v 0.015415 -0.145966 -0.027739
v 0.015415 -0.105966 -0.027739
v 0.015415 -0.085966 -0.013597
v -0.015158 -0.105966 -0.029342
v 0.028156 -0.145966 -0.000856
v 0.015415 -0.165966 -0.013597
v 0.028156 -0.105966 -0.000856
v 0.014014 -0.085966 -0.000856
v 0.015416 -0.165992 0.014688
v 0.015416 -0.145992 0.028830
v -0.057584 -0.145992 0.027227
v 0.015416 -0.085992 0.014688
v 0.015416 -0.105992 0.028830
v 0.015416 0.143360 0.028830
v -0.015155 0.103361 0.027229
v 0.015416 0.103361 0.028830
v -0.015156 0.143387 -0.029340
v 0.015417 0.103387 -0.027738
v -0.015156 0.103387 -0.029340
v 0.028157 0.143387 -0.000855
v 0.015417 0.143387 -0.027738
v 0.028157 0.103387 -0.000855
v -0.015155 0.143360 0.027229
v 0.015416 0.163360 0.014688
v -0.015157 0.163360 0.013085
v -0.015157 0.163387 -0.015199
v 0.015416 0.163387 -0.013597
v 0.014015 0.163387 -0.000855
v 0.015416 0.083360 0.014688
v 0.015416 0.083387 -0.013597
v -0.015157 0.083387 -0.015199
v -0.043441 0.163360 0.013085
v -0.057583 0.143360 0.027228
v -0.057583 0.103361 0.027228
v -0.043441 0.083360 0.013085
v -0.015157 0.083360 0.013085
v -0.029299 0.143387 -0.029342
v -0.053203 0.153387 -0.013030
v -0.029299 0.103387 -0.029342
v -0.053189 0.083387 -0.012967
v -0.156578 0.163360 0.041370
v -0.135365 0.143360 0.048441
v -0.156579 0.103361 0.055511
v -0.135366 -0.145992 0.048440
v -0.156578 -0.165992 0.041370
v -0.163859 -0.155966 0.011510
v -0.156579 -0.105992 0.055511
v -0.177110 0.103361 0.047946
v -0.177110 -0.105992 0.047945
v -0.181512 0.101626 0.017395
v -0.181512 -0.104255 0.017394
v -0.163856 0.153387 0.011510
v 0.014014 -0.165966 -0.000856
v 0.014015 0.083387 -0.000855
v -0.043442 0.163387 -0.015199
v -0.043442 0.083387 -0.015199
v -0.170721 -0.165966 0.013085
v -0.191252 -0.105992 0.019661
v -0.170720 0.163387 0.013085
v -0.043442 -0.085966 -0.015199
v -0.043442 -0.165966 -0.015199
v -0.191252 0.103361 0.019662
vt 1.000000 0.000000
vt 0.000000 1.000000
vt 0.000000 0.000000
vt 0.000000 0.000000
vt 1.000000 1.000000
vt 0.000000 1.000000
vt 0.000000 1.000000
vt 0.000000 0.000000
vt 1.000000 0.000000
vt 0.000000 1.000000
vt 0.000000 0.000000
vt 1.000000 1.000000
vt 0.000000 1.000000
vt 1.000000 0.000000
vt 0.000000 0.000000
vt 1.000000 0.000000
vt 0.000000 1.000000
vt 0.000000 0.000000
vt 1.000000 1.000000
vt 0.000000 1.000000
vt 1.000000 0.000000
vt 0.000000 1.000000
vt 0.000000 0.000000
vt 1.000000 0.000000
vt 0.000000 1.000000
vt 1.000000 0.000000
vt 0.000000 1.000000
vt 0.000000 0.000000
vt 0.000000 0.000000
vt 1.000000 1.000000
vt 0.000000 1.000000
vt 0.000000 1.000000
vt 0.000000 0.000000
vt 1.000000 0.000000
vt 0.000000 1.000000
vt 0.000000 0.000000
vt 1.000000 1.000000
vt 1.000000 0.000000
vt 1.000000 0.000000
vt 0.000000 1.000000
vt 0.000000 1.000000
vt 0.000000 0.000000
vt 1.000000 1.000000
vt 0.000000 1.000000
vt 0.000000 0.000000
vt 1.000000 1.000000
vt 1.000000 0.000000
vt 0.000000 1.000000
vt 0.000000 0.000000
vt 1.000000 0.000000
vt 0.000000 1.000000
vt 0.000000 0.000000
vt 1.000000 0.000000
vt 0.000000 0.000000
vt 0.000000 0.000000
vt 1.000000 1.000000
vt 0.000000 1.000000
vt 0.000000 0.000000
vt 1.000000 1.000000
vt 0.000000 1.000000
vt 0.000000 0.000000
vt 0.000000 1.000000
vt 1.000000 1.000000
vt 0.000000 1.000000
vt 1.000000 1.000000
vt 0.000000 1.000000
vt 1.000000 0.000000
vt 0.000000 1.000000
vt 0.000000 0.000000
vt 1.000000 1.000000
vt 1.000000 0.000000
vt 0.000000 1.000000
vt 0.000000 0.000000
vt 1.000000 0.000000
vt 0.000000 1.000000
vt 1.000000 1.000000
vt 0.000000 1.000000
vt 1.000000 0.000000
vt 0.000000 1.000000
vt 0.000000 0.000000
vt 0.000000 1.000000
vt 0.000000 0.000000
vt 0.000000 0.000000
vt 1.000000 1.000000
vt 0.000000 1.000000
vt 1.000000 0.000000
vt 0.000000 1.000000
vt 0.000000 0.000000
vt 1.000000 0.000000
vt 0.000000 1.000000
vt 1.000000 0.000000
vt 0.000000 0.000000
vt 1.000000 1.000000
vt 0.000000 0.000000
vt 1.000000 1.000000
vt 1.000000 0.000000
vt 0.000000 1.000000
vt 0.000000 0.000000
vt 1.000000 0.000000
vt 0.000000 1.000000
vt 0.000000 0.000000
vt 0.000000 0.000000
vt 1.000000 1.000000
vt 0.000000 1.000000
vt 1.000000 0.000000
vt 1.000000 0.000000
vt 0.000000 1.000000
vt 0.000000 0.000000
vt 0.000000 0.000000
vt 1.000000 1.000000
vt 0.000000 1.000000
vt 1.000000 1.000000
vt 0.000000 1.000000
vt 0.000000 0.000000
vt 1.000000 1.000000
vt 0.000000 1.000000
vt 0.000000 0.000000
vt 1.000000 1.000000
vt 0.000000 1.000000
vt 1.000000 0.000000
vt 0.000000 1.000000
vt 0.000000 0.000000
vt 0.000000 0.000000
vt 0.000000 0.000000
vt 1.000000 1.000000
vt 0.000000 1.000000
vt 1.000000 0.000000
vt 0.000000 1.000000
vt 0.000000 0.000000
vt 0.000000 0.000000
vt 1.000000 1.000000
vt 0.000000 1.000000
vt 1.000000 1.000000
vt 1.000000 1.000000
vt 1.000000 0.000000
vt 1.000000 1.000000
vt 1.000000 1.000000
vt 1.000000 1.000000
vt 1.000000 1.000000
vt 1.000000 0.000000
vt 1.000000 1.000000
vt 1.000000 1.000000
vt 1.000000 0.000000
vt 1.000000 0.000000
vt 1.000000 1.000000
vt 1.000000 1.000000
vt 1.000000 0.000000
vt 1.000000 0.000000
vt 1.000000 0.000000
vt 1.000000 1.000000
vt 1.000000 1.000000
vt 1.000000 0.000000
vt 1.000000 1.000000
vt 1.000000 1.000000
vt 1.000000 1.000000
vt 1.000000 1.000000
vt 1.000000 0.000000
vt 1.000000 1.000000
vt 1.000000 1.000000
vt 1.000000 0.000000
vt 1.000000 1.000000
vt 1.000000 0.000000
vt 1.000000 0.000000
vt 1.000000 0.000000
vt 1.000000 0.000000
vt 0.125000 0.076697
vt 1.000000 0.000000
vt 1.000000 0.076696
vt 0.125000 0.053994
vt 1.000000 0.000000
vt 1.006667 0.066790
vt 0.125000 0.923305
vt 1.000000 1.000000
vt 0.992234 0.934152
vt -0.007766 0.934151
vt 0.001997 0.065847
vt 1.000000 0.000000
vt 0.985411 0.065848
vt 0.144279 0.933205
vt 1.000000 0.923304
vt 0.000000 0.000000
vt 1.006694 0.933205
vn -0.0000 -0.5774 -0.8165
vn -0.0000 0.5774 -0.8165
vn -0.0000 -1.0000 -0.0009
vn 0.0000 1.0000 0.0009
vn -0.0000 0.5774 0.8165
vn 0.0000 -0.5774 0.8165
vn 0.0428 -0.5768 -0.8157
vn 0.0428 0.5768 -0.8158
vn -0.0000 0.0000 -1.0000
vn 0.0523 0.0000 -0.9986
vn 0.8649 -0.2898 -0.4099
vn 0.8132 0.5750 0.0894
vn -0.0428 -0.5768 0.8157
vn -0.0000 -0.0000 1.0000
vn -0.0428 0.5768 0.8157
vn 0.9036 -0.0000 -0.4283
vn -0.0523 0.0000 0.9986
vn 0.8850 0.2688 0.3801
vn 0.8853 -0.2685 0.3797
vn 0.9189 0.0000 0.3944
vn 0.9037 0.0000 -0.4283
vn -0.0428 0.5769 0.8157
vn -0.0427 -0.5768 0.8158
vn 0.8649 -0.2899 -0.4099
vn 0.0428 -0.5768 -0.8158
vn 0.0001 -0.0000 -1.0000
vn 0.0001 -0.5773 -0.8165
vn -0.0000 1.0000 0.0010
vn -0.0000 -1.0000 -0.0010
vn 0.7071 -0.0000 0.7071
vn 1.0000 -0.0000 -0.0000
vn 0.0002 1.0000 0.0010
vn 0.2357 0.4444 0.8642
vn 0.2746 0.0243 0.9612
vn 0.2747 -0.0000 0.9615
vn 0.2631 -0.0000 0.9648
vn 0.2080 -0.5146 0.8318
vn -0.0002 -1.0000 -0.0008
vn -0.3458 -0.0000 0.9383
vn -0.8944 0.0000 0.4472
vn -0.8429 0.3345 0.4215
vn -0.1690 0.1643 0.9718
vn -0.8428 -0.3347 0.4214
vn -0.3264 -0.3297 0.8858
vn -0.7071 -0.0000 -0.7071
vn 0.0428 0.5768 -0.8157
vn 0.8132 -0.5750 0.0894
vn 0.8649 0.2898 -0.4099
vn 0.8143 0.5758 -0.0725
vn 0.8142 -0.5758 -0.0744
vn -0.0427 0.5768 0.8157
vn 0.8144 0.5758 -0.0724
vn 0.8649 0.2899 -0.4099
vn -0.0428 -0.5769 0.8157
vn -0.0000 -0.5773 0.8165
vn 0.0001 0.5773 -0.8165
vn 0.0002 1.0000 0.0009
vn 0.2080 0.5147 0.8318
vn 0.2746 -0.0243 0.9612
vn 0.2357 -0.4444 0.8642
vn -0.0002 -1.0000 -0.0009
vn -0.8427 0.3346 0.4217
vn -0.3264 0.3297 0.8859
vn -0.8430 -0.3346 0.4212
vn -0.1690 -0.1643 0.9718
vn -0.2233 -0.0009 -0.9748
vn -0.2319 0.0315 -0.9722
vn -0.2169 0.0000 -0.9762
vn -0.2232 0.0000 -0.9748
vn -0.2165 -0.0051 -0.9763
vn -0.2267 0.0000 -0.9740
vn -0.2513 -0.0201 -0.9677
vn -0.2343 0.0306 -0.9717
vn -0.2513 0.0201 -0.9677
vn -0.2165 0.0051 -0.9763
vn -0.2232 0.0009 -0.9748
vn -0.2233 0.0000 -0.9748
vn -0.2319 -0.0314 -0.9722
vn -0.2165 -0.0009 -0.9763
vn -0.2165 0.0009 -0.9763
vn -0.2343 -0.0306 -0.9717
vn -0.2302 0.0000 -0.9731
usemtl gloss_black
s off
f 1/1/1 2/2/1 3/3/1
f 4/4/2 5/5/2 74/6/2
f 1/1/3 7/7/3 75/8/3
f 74/9/4 9/10/4 4/4/4
f 10/11/5 11/12/5 12/13/5
f 13/14/6 7/7/6 14/15/6
f 15/16/7 1/17/7 3/3/7
f 16/18/8 4/19/8 17/20/8
f 3/21/9 5/22/9 18/23/9
f 18/24/10 15/25/10 3/3/10
f 19/26/11 20/27/11 15/28/11
f 21/29/12 17/30/12 22/31/12
f 13/14/13 23/32/13 24/33/13
f 10/34/14 25/35/14 13/36/14
f 10/11/15 26/37/15 9/10/15
f 21/38/16 15/25/16 16/18/16
f 27/39/17 13/40/17 24/33/17
f 21/29/18 26/37/18 27/41/18
f 23/42/19 19/43/19 24/44/19
f 19/45/20 27/46/20 24/44/20
f 28/47/17 29/48/17 30/49/17
f 31/50/10 32/51/10 33/52/10
f 34/53/21 32/51/21 35/54/21
f 36/55/20 28/56/20 30/57/20
f 37/58/22 38/59/22 39/60/22
f 34/61/18 38/59/18 28/62/18
f 35/54/8 40/63/8 41/64/8
f 34/61/12 41/65/12 42/66/12
f 29/67/23 43/68/23 30/49/23
f 43/69/19 36/70/19 30/57/19
f 36/71/24 44/72/24 32/73/24
f 32/74/25 45/75/25 33/52/25
f 37/58/5 46/76/5 47/77/5
f 37/78/14 48/79/14 29/80/14
f 29/67/6 49/81/6 50/82/6
f 40/83/2 51/84/2 69/85/2
f 33/86/26 51/87/26 31/88/26
f 45/89/27 53/90/27 33/52/27
f 69/91/28 39/60/28 40/83/28
f 70/92/29 50/93/29 49/81/29
f 12/94/30 49/95/30 48/79/30
f 49/96/31 74/6/31 70/92/31
f 69/91/32 55/97/32 46/98/32
f 46/99/33 56/100/33 47/101/33
f 48/102/34 56/103/34 57/104/34
f 57/105/35 12/13/35 48/102/35
f 12/106/36 58/107/36 25/108/36
f 7/109/37 58/110/37 59/111/37
f 75/8/38 59/112/38 71/113/38
f 61/114/39 62/115/39 63/116/39
f 63/117/40 76/118/40 72/119/40
f 62/120/41 73/121/41 76/122/41
f 62/123/42 56/103/42 55/97/42
f 71/124/43 63/125/43 72/119/43
f 63/117/44 58/110/44 61/126/44
f 51/127/45 70/128/45 69/129/45
f 74/130/45 2/131/45 75/132/45
f 1/1/1 75/133/1 2/2/1
f 4/4/2 18/24/2 5/5/2
f 1/1/3 14/134/3 7/7/3
f 74/9/4 11/12/4 9/10/4
f 10/11/5 9/135/5 11/12/5
f 13/14/6 25/136/6 7/7/6
f 15/16/25 20/137/25 1/17/25
f 16/18/46 18/24/46 4/19/46
f 3/21/9 2/131/9 5/22/9
f 18/24/10 16/138/10 15/25/10
f 19/26/47 67/139/47 20/27/47
f 21/29/48 16/140/48 17/30/48
f 13/14/13 14/134/13 23/32/13
f 10/34/14 12/141/14 25/35/14
f 10/11/15 27/39/15 26/37/15
f 21/38/16 19/43/16 15/25/16
f 27/39/17 10/142/17 13/40/17
f 21/29/49 22/143/49 26/37/49
f 23/42/50 67/144/50 19/43/50
f 19/45/20 21/38/20 27/46/20
f 28/47/17 37/145/17 29/48/17
f 31/50/10 35/146/10 32/51/10
f 34/53/21 36/70/21 32/51/21
f 36/55/20 34/53/20 28/56/20
f 37/58/51 28/47/51 38/59/51
f 34/61/52 42/147/52 38/59/52
f 35/54/8 31/50/8 40/63/8
f 34/61/53 35/148/53 41/65/53
f 29/67/54 50/93/54 43/68/54
f 43/69/50 68/149/50 36/70/50
f 36/71/47 68/150/47 44/72/47
f 32/74/25 44/151/25 45/75/25
f 37/58/5 39/152/5 46/76/5
f 37/78/14 47/153/14 48/79/14
f 29/67/55 48/154/55 49/81/55
f 40/83/56 31/50/56 51/84/56
f 33/86/26 53/155/26 51/87/26
f 45/89/1 70/156/1 53/90/1
f 69/91/28 46/76/28 39/60/28
f 70/92/29 45/89/29 50/93/29
f 12/94/30 11/157/30 49/95/30
f 49/96/31 11/12/31 74/6/31
f 69/91/57 73/158/57 55/97/57
f 46/99/58 55/159/58 56/100/58
f 48/102/36 47/160/36 56/103/36
f 57/105/35 61/161/35 12/13/35
f 12/106/59 61/161/59 58/107/59
f 7/109/60 25/162/60 58/110/60
f 75/8/61 7/163/61 59/112/61
f 61/114/39 57/105/39 62/115/39
f 63/117/40 62/120/40 76/118/40
f 62/120/62 55/159/62 73/121/62
f 62/123/63 57/105/63 56/103/63
f 71/124/64 59/164/64 63/125/64
f 63/117/65 59/164/65 58/110/65
f 51/127/45 53/155/45 70/128/45
f 74/130/45 5/165/45 2/131/45
usemtl full_glossy
f 52/166/66 70/167/66 54/168/66
f 60/169/67 72/170/67 65/171/67
f 52/166/68 73/121/68 69/129/68
f 8/172/68 74/173/68 75/132/68
f 54/174/69 74/6/69 6/175/69
f 8/172/70 71/124/70 60/169/70
f 65/176/71 76/177/71 64/178/71
f 66/179/72 76/118/72 73/121/72
f 6/180/73 60/169/73 65/176/73
f 52/166/68 69/129/68 70/167/68
f 60/169/74 71/124/74 72/170/74
f 52/166/75 66/179/75 73/121/75
f 8/172/76 6/180/76 74/173/76
f 54/174/77 70/156/77 74/6/77
f 8/172/68 75/132/68 71/124/68
f 65/176/71 72/181/71 76/177/71
f 66/179/78 64/182/78 76/118/78
f 66/179/79 52/166/79 54/174/79
f 6/180/80 8/172/80 60/169/80
f 66/179/81 54/174/81 64/182/81
f 54/174/82 6/180/82 64/182/82
f 65/176/82 64/182/82 6/180/82
