# Blender v3.1.2 OBJ File: 'untitled.blend'
# www.blender.org
mtllib canh1.mtl
o Cylinder.001
v -0.000058 -0.100894 0.167607
v -0.095806 -0.087314 0.145686
v -0.165899 -0.050215 0.085798
v -0.191555 0.000464 0.003989
v -0.165899 0.051142 -0.077821
v -0.095806 0.088242 -0.137709
v -0.000058 0.101821 -0.159630
v 0.095691 0.088242 -0.137709
v 0.165783 0.051142 -0.077821
v 0.191439 0.000464 0.003989
v 0.165783 -0.050215 0.085798
v 0.095691 -0.087314 0.145686
v -0.040073 1.896373 1.547844
v -0.100526 1.910215 1.539274
v -0.144780 1.948033 1.515861
v -0.160978 1.999692 1.483878
v -0.144780 2.051352 1.451894
v -0.100526 2.089170 1.428481
v -0.040073 2.103012 1.419911
v 0.020379 2.089170 1.428481
v 0.064633 2.051352 1.451894
v 0.080831 1.999692 1.483878
v 0.064633 1.948033 1.515861
v 0.020379 1.910215 1.539274
v -0.270636 2.724966 2.370752
v -0.301951 2.731660 2.365622
v -0.324876 2.749947 2.351605
v -0.333267 2.774927 2.332457
v -0.324876 2.799908 2.313309
v -0.301951 2.818195 2.299292
v -0.270636 2.824888 2.294162
v -0.239320 2.818195 2.299292
v -0.216395 2.799908 2.313309
v -0.208004 2.774927 2.332457
v -0.216395 2.749947 2.351605
v -0.239320 2.731660 2.365622
v 0.050732 0.972985 0.780442
v 0.102560 0.945553 0.824724
v -0.142691 0.945553 0.824724
v -0.090864 0.972985 0.780442
v 0.050732 0.843176 0.989989
v -0.020066 0.833135 1.006197
v -0.090864 0.843176 0.989989
v -0.142691 0.870607 0.945706
v 0.121530 0.908080 0.885215
v -0.020066 0.983025 0.764233
v -0.161661 0.908080 0.885215
v 0.102560 0.870607 0.945706
vt 0.416667 1.000000
vt 0.333333 1.000000
vt 0.333333 1.000000
vt 0.916667 1.000000
vt 1.000000 1.000000
vt 0.916667 1.000000
vt 0.583333 1.000000
vt 0.666667 1.000000
vt 0.583333 1.000000
vt 0.083333 1.000000
vt 0.000000 1.000000
vt 0.000000 1.000000
vt 0.833333 1.000000
vt 0.833333 1.000000
vt 0.250000 1.000000
vt 0.250000 1.000000
vt 0.500000 1.000000
vt 0.500000 1.000000
vt 0.750000 1.000000
vt 0.750000 1.000000
vt 0.166667 1.000000
vt 0.166667 1.000000
vt 0.416667 1.000000
vt 0.666667 1.000000
vt 0.083333 1.000000
vt 0.916667 1.000000
vt 1.000000 1.000000
vt 0.457846 0.130000
vt 0.490000 0.250000
vt 0.457846 0.370000
vt 0.333333 1.000000
vt 0.583333 1.000000
vt 0.083333 1.000000
vt 0.000000 1.000000
vt 0.833333 1.000000
vt 0.250000 1.000000
vt 0.500000 1.000000
vt 0.750000 1.000000
vt 0.166667 1.000000
vt 0.416667 1.000000
vt 0.666667 1.000000
vt 1.000000 1.000000
vt 0.916667 1.000000
vt 0.083333 1.000000
vt 0.750000 1.000000
vt 0.666667 1.000000
vt 0.416667 1.000000
vt 0.166667 1.000000
vt 0.833333 1.000000
vt 0.583333 1.000000
vt 0.500000 1.000000
vt 0.250000 1.000000
vt 0.000000 1.000000
vt 0.333333 1.000000
vt 1.000000 1.000000
vt 0.370000 0.457846
vt 0.370000 0.042154
vt 0.250000 0.490000
vt 0.250000 0.010000
vt 0.130000 0.457846
vt 0.042154 0.370000
vt 0.130000 0.042154
vt 0.010000 0.250000
vt 0.042154 0.130000
vn 0.7089 0.3662 -0.6028
vn -0.2592 -0.7158 0.6484
vn -0.6621 0.3720 -0.6506
vn 0.2591 -0.4345 0.8626
vn -0.6555 -0.3542 0.6669
vn 0.9661 0.1509 -0.2095
vn -0.2311 0.4885 -0.8414
vn -0.9561 -0.1405 0.2573
vn 0.9652 -0.0950 0.2438
vn 0.2600 0.4901 -0.8320
vn -0.9566 0.1425 -0.2544
vn 0.7070 -0.3077 0.6368
vn -0.2252 -0.4476 0.8654
vn -0.0000 0.6083 0.7937
vn 0.7075 0.6312 -0.3177
vn -0.6911 0.4675 -0.5512
vn 0.2558 -0.6445 0.7206
vn -0.7085 -0.5792 0.4031
vn 0.9434 0.3311 0.0186
vn -0.2557 0.7113 -0.6547
vn -0.9616 -0.2698 0.0512
vn 0.9341 -0.0421 0.3545
vn 0.2592 0.7772 -0.5734
vn -0.9482 0.1135 -0.2969
vn 0.6877 -0.3952 0.6090
vn -0.2561 -0.6488 0.7166
vn 0.7051 -0.4575 0.5418
vn -0.9632 0.2029 -0.1763
vn 0.2520 0.7030 -0.6651
vn 0.9663 -0.1372 0.2180
vn -0.9657 -0.1638 0.2014
vn -0.2525 0.6974 -0.6707
vn 0.9603 0.2288 -0.1594
vn -0.7032 -0.4757 0.5284
vn 0.2564 -0.6427 0.7219
vn -0.6974 0.5180 -0.4954
vn 0.6944 0.5349 -0.4814
vn 0.6675 0.3874 -0.6359
vn -0.2560 -0.7161 0.6493
vn -0.7086 0.3471 -0.6143
vn 0.2242 -0.4410 0.8691
vn -0.7080 -0.3283 0.6253
vn 0.9607 0.1612 -0.2261
vn -0.2599 0.4832 -0.8361
vn -0.9661 -0.1222 0.2273
vn 0.9506 -0.1212 0.2857
vn 0.2320 0.4945 -0.8376
vn -0.9662 0.1245 -0.2259
vn 0.6492 -0.3378 0.6815
vn -0.2593 -0.4423 0.8586
vn 0.0000 0.6084 0.7937
vn 0.7028 0.6345 -0.3216
vn -0.7005 0.4597 -0.5459
vn 0.2502 -0.6462 0.7210
vn -0.7084 -0.5793 0.4032
vn 0.9476 0.3176 0.0331
vn -0.2591 0.7103 -0.6545
vn -0.9591 -0.2769 0.0590
vn 0.9266 -0.0609 0.3710
vn 0.2600 0.7771 -0.5731
vn -0.9530 0.1010 -0.2858
vn 0.6739 -0.4067 0.6168
usemtl Material
s off
f 37/1/1 21/2/1 38/3/1
f 14/4/2 25/5/2 26/6/2
f 40/7/3 17/8/3 18/9/3
f 41/10/4 13/11/4 42/12/4
f 44/13/5 14/4/5 15/14/5
f 38/3/6 22/15/6 45/16/6
f 46/17/7 18/9/7 19/18/7
f 47/19/8 15/14/8 16/20/8
f 45/16/9 23/21/9 48/22/9
f 46/17/10 20/23/10 37/1/10
f 39/24/11 16/20/11 17/8/11
f 48/22/12 24/25/12 41/10/12
f 43/26/13 13/27/13 14/4/13
f 29/28/14 28/29/14 27/30/14
f 20/23/15 33/31/15 21/2/15
f 17/8/16 30/32/16 18/9/16
f 13/11/17 36/33/17 25/34/17
f 15/14/18 26/6/18 27/35/18
f 22/15/19 33/31/19 34/36/19
f 18/9/20 31/37/20 19/18/20
f 15/14/21 28/38/21 16/20/21
f 23/21/22 34/36/22 35/39/22
f 19/18/23 32/40/23 20/23/23
f 16/20/24 29/41/24 17/8/24
f 24/25/25 35/39/25 36/33/25
f 1/42/26 43/26/26 2/43/26
f 12/44/27 48/22/27 41/10/27
f 4/45/28 39/24/28 5/46/28
f 8/47/29 46/17/29 37/1/29
f 11/48/30 45/16/30 48/22/30
f 3/49/31 47/19/31 4/45/31
f 6/50/32 46/17/32 7/51/32
f 10/52/33 38/3/33 45/16/33
f 2/43/34 44/13/34 3/49/34
f 1/53/35 41/10/35 42/12/35
f 5/46/36 40/7/36 6/50/36
f 9/54/37 37/1/37 38/3/37
f 37/1/38 20/23/38 21/2/38
f 14/4/39 13/27/39 25/5/39
f 40/7/40 39/24/40 17/8/40
f 41/10/41 24/25/41 13/11/41
f 44/13/42 43/26/42 14/4/42
f 38/3/43 21/2/43 22/15/43
f 46/17/44 40/7/44 18/9/44
f 47/19/45 44/13/45 15/14/45
f 45/16/46 22/15/46 23/21/46
f 46/17/47 19/18/47 20/23/47
f 39/24/48 47/19/48 16/20/48
f 48/22/49 23/21/49 24/25/49
f 43/26/50 42/55/50 13/27/50
f 27/30/14 26/56/14 30/57/14
f 26/56/14 25/58/14 31/59/14
f 25/58/14 36/60/14 31/59/14
f 36/60/14 35/61/14 32/62/14
f 31/59/14 36/60/14 32/62/14
f 35/61/14 34/63/14 33/64/14
f 33/64/51 32/62/51 35/61/51
f 31/59/14 30/57/14 26/56/14
f 30/57/14 29/28/14 27/30/14
f 20/23/52 32/40/52 33/31/52
f 17/8/53 29/41/53 30/32/53
f 13/11/54 24/25/54 36/33/54
f 15/14/55 14/4/55 26/6/55
f 22/15/56 21/2/56 33/31/56
f 18/9/57 30/32/57 31/37/57
f 15/14/58 27/35/58 28/38/58
f 23/21/59 22/15/59 34/36/59
f 19/18/60 31/37/60 32/40/60
f 16/20/61 28/38/61 29/41/61
f 24/25/62 23/21/62 35/39/62
f 1/42/26 42/55/26 43/26/26
f 12/44/27 11/48/27 48/22/27
f 4/45/28 47/19/28 39/24/28
f 8/47/29 7/51/29 46/17/29
f 11/48/30 10/52/30 45/16/30
f 3/49/31 44/13/31 47/19/31
f 6/50/32 40/7/32 46/17/32
f 10/52/33 9/54/33 38/3/33
f 2/43/34 43/26/34 44/13/34
f 1/53/35 12/44/35 41/10/35
f 5/46/36 39/24/36 40/7/36
f 9/54/37 8/47/37 37/1/37
