# Blender v3.1.2 OBJ File: ''
# www.blender.org
mtllib cuaSo1.mtl
o cuaSo1.001
v 0.006863 3.773731 2.649997
v -0.006863 1.743091 -2.650000
v -0.006863 3.773727 -2.650002
v 0.006863 1.743096 2.649998
v -0.045692 3.778508 2.850000
v -0.045692 4.024265 2.850000
v -0.045692 3.778508 -2.850000
v -0.045692 4.024265 -2.850000
v 0.060011 3.778508 2.850000
v 0.060011 4.024265 2.850000
v 0.060011 3.778508 -2.850000
v 0.060011 4.024265 -2.850000
v -0.045692 1.543586 2.850000
v -0.045692 1.738134 2.850000
v -0.045692 1.543586 -2.850000
v -0.045692 1.738134 -2.850000
v 0.060011 1.543586 2.850000
v 0.060011 1.738134 2.850000
v 0.060011 1.543586 -2.850000
v 0.060011 1.738134 -2.850000
v -0.045692 1.545040 2.654700
v -0.045692 1.545040 2.849247
v -0.045692 4.028578 2.654700
v -0.045692 4.028578 2.849248
v 0.060011 1.545040 2.654700
v 0.060011 1.545040 2.849247
v 0.060011 4.028578 2.654700
v 0.060011 4.028578 2.849248
v -0.045692 1.545040 -2.849244
v -0.045692 1.545040 -2.654696
v -0.045692 4.028578 -2.849244
v -0.045692 4.028578 -2.654696
v 0.060011 1.545040 -2.849244
v 0.060011 1.545040 -2.654696
v 0.060011 4.028578 -2.849244
v 0.060011 4.028578 -2.654696
vt 0.000000 0.000000
vt 0.000000 0.000000
vt 0.000000 0.000000
vt 0.000000 0.000000
vt 0.625000 0.000000
vt 0.375000 0.250000
vt 0.375000 0.000000
vt 0.625000 0.250000
vt 0.375000 0.500000
vt 0.625000 0.500000
vt 0.375000 0.750000
vt 0.625000 0.750000
vt 0.375000 1.000000
vt 0.125000 0.750000
vt 0.125000 0.500000
vt 0.875000 0.500000
vt 0.625000 0.000000
vt 0.375000 0.250000
vt 0.375000 0.000000
vt 0.625000 0.250000
vt 0.375000 0.500000
vt 0.625000 0.500000
vt 0.375000 0.750000
vt 0.625000 0.750000
vt 0.375000 1.000000
vt 0.125000 0.750000
vt 0.125000 0.500000
vt 0.875000 0.500000
vt 0.625000 0.000000
vt 0.375000 0.250000
vt 0.375000 0.000000
vt 0.625000 0.250000
vt 0.375000 0.500000
vt 0.625000 0.500000
vt 0.375000 0.750000
vt 0.625000 0.750000
vt 0.375000 1.000000
vt 0.125000 0.750000
vt 0.125000 0.500000
vt 0.875000 0.500000
vt 0.625000 0.000000
vt 0.375000 0.250000
vt 0.375000 0.000000
vt 0.625000 0.250000
vt 0.375000 0.500000
vt 0.625000 0.500000
vt 0.375000 0.750000
vt 0.625000 0.750000
vt 0.375000 1.000000
vt 0.125000 0.750000
vt 0.125000 0.500000
vt 0.875000 0.500000
vt 0.625000 1.000000
vt 0.875000 0.750000
vt 0.625000 1.000000
vt 0.875000 0.750000
vt 0.625000 1.000000
vt 0.875000 0.750000
vt 0.625000 1.000000
vt 0.875000 0.750000
vn 1.0000 -0.0000 -0.0026
vn -1.0000 0.0000 0.0000
vn 0.0000 0.0000 -1.0000
vn 1.0000 0.0000 0.0000
vn 0.0000 0.0000 1.0000
vn 0.0000 -1.0000 0.0000
vn 0.0000 1.0000 0.0000
usemtl Material.037
s off
f 2/1/1 3/2/1 1/3/1
f 2/1/1 1/3/1 4/4/1
f 6/5/2 7/6/2 5/7/2
f 8/8/3 11/9/3 7/6/3
f 12/10/4 9/11/4 11/9/4
f 10/12/5 5/13/5 9/11/5
f 11/9/6 5/14/6 7/15/6
f 8/16/7 10/12/7 12/10/7
f 14/17/2 15/18/2 13/19/2
f 16/20/3 19/21/3 15/18/3
f 20/22/4 17/23/4 19/21/4
f 18/24/5 13/25/5 17/23/5
f 19/21/6 13/26/6 15/27/6
f 16/28/7 18/24/7 20/22/7
f 22/29/2 23/30/2 21/31/2
f 24/32/7 27/33/7 23/30/7
f 28/34/4 25/35/4 27/33/4
f 26/36/6 21/37/6 25/35/6
f 27/33/3 21/38/3 23/39/3
f 24/40/5 26/36/5 28/34/5
f 30/41/2 31/42/2 29/43/2
f 32/44/7 35/45/7 31/42/7
f 36/46/4 33/47/4 35/45/4
f 34/48/6 29/49/6 33/47/6
f 35/45/3 29/50/3 31/51/3
f 32/52/5 34/48/5 36/46/5
f 6/5/2 8/8/2 7/6/2
f 8/8/3 12/10/3 11/9/3
f 12/10/4 10/12/4 9/11/4
f 10/12/5 6/53/5 5/13/5
f 11/9/6 9/11/6 5/14/6
f 8/16/7 6/54/7 10/12/7
f 14/17/2 16/20/2 15/18/2
f 16/20/3 20/22/3 19/21/3
f 20/22/4 18/24/4 17/23/4
f 18/24/5 14/55/5 13/25/5
f 19/21/6 17/23/6 13/26/6
f 16/28/7 14/56/7 18/24/7
f 22/29/2 24/32/2 23/30/2
f 24/32/7 28/34/7 27/33/7
f 28/34/4 26/36/4 25/35/4
f 26/36/6 22/57/6 21/37/6
f 27/33/3 25/35/3 21/38/3
f 24/40/5 22/58/5 26/36/5
f 30/41/2 32/44/2 31/42/2
f 32/44/7 36/46/7 35/45/7
f 36/46/4 34/48/4 33/47/4
f 34/48/6 30/59/6 29/49/6
f 35/45/3 33/47/3 29/50/3
f 32/52/5 30/60/5 34/48/5
